<?xml version="1.0" standalone="no"?>
<!DOCTYPE svg PUBLIC "-//W3C//DTD SVG 20010904//EN" "http://www.w3.org/TR/2001/REC-SVG-20010904/DTD/svg10.dtd">
<svg xmlns="http://www.w3.org/2000/svg" version="1.0" width="1155.000000pt" height="1155.000000pt" viewBox="0 0 1155.000000 1155.000000" preserveAspectRatio="xMidYMid meet">
<metadata>
Created by potrace 1.16, written by Peter Selinger 2001-2019
<meta name="Producer" content="Online-Convert"/></metadata>
<g transform="translate(0.000000,1155.000000) scale(0.100000,-0.100000)" fill="#000000" stroke="none">
<path d="M5601 11493 c-6 -32 -18 -85 -26 -118 -18 -67 -34 -137 -40 -175 -5 -30 -25 -109 -32 -130 -3 -8 -8 -31 -10 -50 -2 -19 -8 -39 -12 -45 -8 -9 -12 -30 -26 -120 -12 -81 -54 -247 -66 -260 -5 -5 -9 -22 -9 -37 0 -30 -9 -35 -28 -16 -14 14 -15 8 -3 -25 8 -20 6 -24 -6 -23 -13 1 -17 -10 -20 -43 -1 -24 2 -50 7 -57 8 -9 5 -12 -15 -10 -14 0 -25 2 -25 3 0 1 5 14 10 28 7 19 6 33 -2 48 -12 22 -20 67 -36 203 -5 39 -12 76 -16 82 -4 7 -9 70 -11 141 -4 154 -18 211 -51 211 -22 0 -43 34 -30 47 3 4 6 1 6 -5 0 -7 10 -12 23 -12 20 1 21 2 5 14 -10 7 -18 18 -18 25 0 14 -13 14 -28 -1 -9 -9 -12 -5 -13 17 l0 30 -11 -25 c-5 -14 -14 -32 -19 -40 -5 -8 -20 -39 -35 -68 -14 -29 -32 -56 -40 -59 -8 -3 -14 -16 -14 -29 0 -14 -7 -41 -15 -60 -8 -20 -13 -40 -10 -44 3 -4 -2 -13 -10 -20 -12 -10 -16 -9 -20 1 -9 27 -12 334 -3 352 5 9 5 23 1 30 -12 18 -13 159 -1 184 14 29 4 53 -23 53 -59 0 -551 -99 -566 -114 -3 -3 -8 -27 -10 -53 -3 -26 -10 -54 -16 -61 -8 -10 -7 -16 3 -22 12 -7 11 -12 -5 -30 -12 -14 -15 -24 -9 -28 10 -6 10 -37 2 -111 -3 -24 -28 -43 -28 -22 0 6 -5 11 -11 11 -6 0 -1 -14 11 -30 16 -22 19 -34 11 -43 -7 -9 -5 -16 8 -24 19 -12 19 -55 -1 -80 -5 -7 -5 -14 1 -18 8 -4 8 -180 0 -215 -1 -3 0 -15 1 -27 1 -13 -3 -23 -9 -23 -6 0 -11 -11 -11 -25 0 -29 -38 -55 -50 -35 -4 7 -13 9 -19 6 -6 -4 -9 -11 -6 -16 3 -5 1 -11 -5 -15 -5 -3 -10 -13 -10 -21 0 -11 4 -12 19 -4 27 14 34 13 27 -6 -8 -20 3 -66 14 -59 5 3 11 1 14 -4 4 -5 2 -12 -4 -16 -20 -12 -10 -27 15 -21 32 8 32 -7 1 -28 -18 -11 -26 -12 -29 -3 -3 9 -9 8 -21 -3 -14 -14 -15 -18 0 -38 8 -12 19 -20 24 -17 5 3 11 1 14 -4 4 -5 2 -12 -4 -16 -5 -3 -10 -15 -10 -27 0 -14 -5 -18 -15 -15 -8 4 -17 2 -20 -4 -4 -5 1 -12 9 -15 29 -11 18 -34 -16 -35 -31 -2 -31 -2 -5 -6 30 -5 33 -13 15 -31 -9 -9 -10 -15 -2 -20 9 -6 23 -30 56 -95 7 -14 5 -24 -7 -37 -12 -13 -13 -20 -5 -25 7 -4 10 -16 7 -26 -3 -10 0 -20 6 -22 9 -3 9 -10 0 -28 -14 -33 1 -66 23 -48 19 15 19 -10 1 -35 -13 -17 -14 -17 -30 -1 -18 17 -23 9 -8 -14 5 -8 16 -11 26 -7 23 9 56 -11 48 -30 -3 -8 -12 -13 -19 -10 -19 7 -8 -44 12 -60 12 -10 12 -13 -1 -24 -21 -17 -19 -47 3 -54 21 -7 40 -39 44 -76 2 -14 9 -24 16 -22 6 1 12 -2 12 -8 0 -5 -4 -10 -10 -10 -5 0 -16 -15 -24 -32 -11 -26 -11 -35 -1 -43 7 -6 12 -21 11 -35 -1 -16 5 -26 17 -28 15 -3 17 1 11 22 -8 35 23 36 36 2 5 -13 13 -27 18 -30 5 -3 17 -33 27 -68 28 -99 44 -142 151 -394 3 -7 1 -15 -4 -18 -14 -8 -171 53 -198 76 -11 10 -33 18 -47 18 -15 0 -49 11 -75 24 -26 13 -87 38 -137 56 -74 27 -232 89 -390 154 -33 14 -50 20 -205 72 -156 53 -233 84 -254 103 -16 14 -18 26 -12 106 4 50 16 119 27 155 11 36 24 90 29 120 15 83 51 302 53 327 1 12 5 25 10 29 4 4 7 17 7 28 0 27 39 183 55 221 7 17 18 48 25 70 7 22 16 48 21 57 5 10 9 28 9 41 0 13 7 32 15 43 8 10 15 28 15 39 0 21 55 161 71 180 4 6 9 23 11 37 2 15 7 30 11 34 4 4 7 15 7 25 0 10 6 24 13 31 18 19 72 134 93 198 10 30 24 62 31 71 7 8 13 20 13 26 0 6 6 14 13 17 6 3 1 3 -13 0 -57 -14 -286 -108 -297 -122 -7 -9 -13 -27 -13 -41 0 -14 -6 -38 -14 -52 -7 -15 -22 -51 -31 -80 -10 -30 -25 -70 -33 -89 -9 -19 -16 -39 -17 -45 -1 -5 -5 -18 -9 -28 -5 -9 -6 -26 -3 -37 3 -10 -2 -25 -9 -31 -8 -7 -13 -18 -10 -26 3 -8 2 -21 -3 -31 -19 -38 -31 -70 -47 -130 -9 -34 -21 -65 -25 -68 -5 -3 -9 -14 -9 -24 0 -11 -7 -34 -14 -52 -8 -18 -31 -85 -50 -148 -97 -321 -106 -344 -122 -327 -3 2 -6 41 -8 85 -2 44 -8 87 -12 94 -5 7 -10 36 -10 63 -4 127 -15 247 -23 263 -6 11 -6 24 1 36 8 14 7 21 -6 28 -11 6 -14 18 -10 43 3 18 1 36 -5 39 -28 18 -76 -47 -49 -67 9 -6 8 -7 -4 -3 -10 3 -18 1 -18 -4 0 -5 -5 -21 -10 -36 -17 -44 -32 -15 -31 62 0 70 15 213 31 294 4 25 7 46 5 48 -5 5 -250 -138 -280 -163 -41 -34 -55 -212 -59 -734 -2 -323 -2 -324 -24 -334 -27 -12 -28 -24 -4 -31 11 -4 24 -16 30 -29 16 -32 45 -300 39 -361 -3 -35 -1 -56 9 -67 7 -8 15 -26 16 -40 3 -22 0 -24 -39 -22 -48 2 -53 -5 -23 -32 36 -32 25 -52 -44 -84 -117 -54 -155 -63 -255 -62 -85 0 -92 -1 -74 -14 12 -8 33 -19 48 -25 43 -16 27 -40 -65 -97 -97 -59 -126 -63 -301 -46 -126 13 -208 51 -210 98 -1 16 -3 48 -5 70 -9 126 -8 283 2 296 15 18 46 121 90 289 42 164 62 220 83 240 9 9 15 27 13 43 -2 15 8 63 22 107 14 43 26 86 26 95 0 8 9 34 19 58 11 23 25 60 31 82 7 22 16 45 20 50 6 8 20 50 24 75 1 3 5 12 11 20 8 13 7 13 -11 0 -153 -117 -558 -513 -566 -554 -4 -21 -1 -26 14 -26 11 0 28 5 40 11 27 15 33 5 18 -31 -9 -21 -19 -30 -36 -30 -15 0 -24 -6 -24 -15 0 -9 -6 -18 -14 -21 -18 -7 -29 -63 -16 -79 8 -10 16 -10 35 -1 32 14 32 30 1 22 -14 -3 -28 -2 -31 4 -3 5 -1 10 5 10 7 0 10 7 6 15 -3 8 -1 15 5 15 5 0 12 -7 15 -15 4 -8 15 -15 25 -15 24 0 25 -27 3 -52 -12 -12 -14 -21 -7 -30 7 -9 6 -22 -2 -41 -11 -27 -13 -28 -28 -12 -15 15 -16 13 -14 -22 1 -21 10 -45 20 -55 18 -16 8 -36 -12 -23 -6 3 -14 -2 -18 -10 -7 -12 -15 -14 -34 -6 -13 5 -18 10 -11 10 6 1 12 10 12 21 0 18 -10 25 -32 21 -5 0 -8 4 -8 9 0 6 9 10 20 10 13 0 24 10 30 26 15 38 12 49 -8 31 -24 -22 -32 -21 -32 3 0 11 5 20 10 20 6 0 10 7 10 16 0 11 -5 14 -16 10 -9 -3 -20 -6 -26 -6 -6 0 -6 -6 2 -15 10 -12 10 -15 -4 -15 -9 0 -16 6 -16 14 0 8 -3 22 -7 32 -5 13 -3 16 10 11 14 -5 16 -2 12 16 -5 17 1 28 24 44 16 13 31 33 33 45 2 16 9 22 20 20 22 -4 24 26 4 34 -9 3 -12 13 -9 22 4 9 3 14 -2 10 -4 -4 -9 -15 -10 -25 -4 -42 -25 -73 -49 -73 -26 0 -72 -48 -203 -215 -73 -94 -235 -318 -273 -380 -24 -39 -40 -175 -21 -175 11 0 8 -94 -4 -123 -4 -10 -2 -24 5 -32 6 -8 10 -29 9 -47 -2 -18 0 -39 5 -46 4 -8 1 -12 -11 -13 -10 0 -13 -3 -5 -6 6 -2 12 -19 12 -37 0 -26 -4 -32 -22 -32 -13 0 -26 5 -30 10 -5 7 -8 4 -8 -6 0 -13 8 -18 29 -18 16 0 34 -6 40 -14 10 -12 9 -14 -6 -10 -16 4 -18 -2 -18 -44 0 -27 6 -56 13 -65 18 -21 6 -43 -14 -26 -17 14 -44 -4 -44 -30 1 -13 3 -13 15 3 12 15 18 17 27 8 9 -9 8 -16 -4 -29 -19 -23 -13 -42 11 -36 15 4 21 -2 26 -27 4 -19 3 -36 -4 -43 -16 -16 -13 -37 4 -37 13 0 14 -4 5 -20 -6 -11 -8 -25 -5 -30 3 -6 2 -10 -4 -10 -5 0 -12 18 -16 40 -9 54 -24 51 -22 -5 2 -34 -3 -48 -18 -59 -30 -22 -12 -29 23 -9 34 19 52 12 32 -12 -10 -13 -10 -19 2 -33 28 -31 14 -82 -33 -124 -23 -21 -46 -38 -51 -38 -19 0 -48 21 -48 35 0 8 -10 19 -21 26 -17 9 -20 17 -16 45 4 24 2 34 -7 34 -8 0 -21 12 -31 26 -14 21 -15 31 -6 51 14 31 14 36 -1 31 -7 -3 -15 -15 -19 -29 -6 -21 -7 -21 -8 9 -1 17 -5 32 -11 32 -5 0 -10 10 -10 23 0 13 -6 31 -13 41 -13 17 -14 17 -24 -10 -12 -32 -12 -78 -1 -90 12 -11 9 -72 -3 -80 -7 -4 -9 -24 -6 -50 3 -32 1 -44 -10 -48 -27 -11 -43 -6 -43 12 0 9 -9 23 -20 30 -14 8 -20 23 -20 47 0 29 -4 35 -20 35 -27 0 -38 29 -17 45 19 13 23 34 7 36 -5 1 -15 2 -22 3 -7 0 -15 12 -18 26 -5 20 -21 -12 -77 -155 -88 -225 -157 -431 -150 -450 3 -7 -1 -19 -9 -25 -8 -7 -14 -21 -14 -32 0 -15 5 -18 21 -13 20 7 21 4 16 -23 -5 -22 -1 -34 13 -47 16 -15 18 -21 8 -33 -10 -11 -9 -17 5 -27 9 -7 17 -19 17 -27 0 -8 5 -19 12 -26 9 -9 7 -12 -10 -12 -13 0 -25 -7 -29 -15 -8 -22 2 -28 24 -17 29 16 47 -10 22 -32 -25 -21 -14 -40 18 -31 23 5 25 4 19 -20 -5 -21 -3 -25 14 -25 11 0 20 -7 20 -15 0 -8 4 -15 8 -15 9 0 52 -93 52 -113 0 -8 4 -7 10 3 7 11 10 11 10 2 0 -7 16 -30 35 -50 26 -28 35 -33 35 -19 0 9 -7 17 -15 17 -8 0 -15 5 -15 10 0 6 4 10 10 10 5 0 14 9 20 21 10 17 8 21 -9 26 -15 4 -21 13 -21 32 1 25 1 25 15 7 14 -19 15 -18 15 11 0 22 -5 32 -20 36 -13 3 -18 10 -14 21 3 9 1 22 -5 29 -16 20 -18 79 -3 84 7 3 12 -5 12 -21 0 -16 6 -26 15 -26 8 0 15 5 15 10 0 6 -4 10 -10 10 -5 0 -10 10 -10 21 0 19 2 20 16 8 13 -11 17 -10 25 4 6 9 17 17 24 17 8 0 15 5 15 10 0 13 -6 13 -46 -2 -27 -9 -35 -9 -48 5 -9 8 -16 19 -16 24 0 4 -10 21 -23 37 -16 20 -22 38 -19 58 6 39 28 29 24 -10 -2 -18 1 -32 7 -32 6 0 11 -9 11 -19 0 -10 7 -22 16 -25 23 -9 24 -8 24 14 0 11 5 20 10 20 6 0 10 7 10 15 0 8 6 15 14 15 16 0 66 -56 66 -73 0 -7 -5 -6 -11 3 -8 11 -9 7 -5 -17 3 -21 1 -35 -7 -40 -17 -10 -59 -84 -53 -91 3 -3 13 1 22 8 25 22 31 0 27 -113 -3 -118 1 -150 23 -145 12 2 16 27 20 123 2 66 6 129 7 140 8 51 20 96 27 100 9 5 40 -21 40 -34 0 -4 22 -29 48 -57 64 -65 74 -97 61 -187 -16 -115 -21 -267 -9 -267 15 0 19 16 24 86 2 34 7 68 12 75 5 8 9 33 10 57 2 62 16 71 53 36 22 -20 29 -35 25 -48 -5 -15 -3 -18 12 -12 21 8 84 -48 84 -76 0 -20 -26 -25 -33 -5 -4 7 -6 6 -6 -4 -1 -12 10 -19 35 -23 53 -10 98 -39 104 -67 4 -18 12 -24 30 -24 18 0 24 -5 22 -17 -3 -18 11 -23 50 -20 11 1 15 -3 11 -13 -3 -9 0 -22 7 -30 9 -10 9 -15 1 -15 -6 0 -11 -7 -11 -16 0 -8 4 -13 9 -9 5 3 12 1 16 -5 3 -5 15 -10 27 -10 14 0 18 -5 14 -16 -9 -24 13 -47 31 -33 17 15 31 3 15 -13 -7 -7 -12 -16 -12 -20 0 -13 44 -27 56 -17 7 6 10 1 10 -14 -1 -16 6 -23 22 -25 17 -3 21 -8 17 -23 -5 -14 0 -21 20 -29 14 -5 24 -14 21 -19 -3 -5 10 -25 29 -44 33 -33 40 -35 36 -13 -1 4 -2 28 -3 52 0 24 -7 49 -14 55 -19 15 -19 79 0 79 7 0 19 -7 26 -15 7 -8 21 -15 31 -15 10 0 23 -8 28 -18 25 -47 50 -295 31 -307 -5 -3 -10 -17 -10 -31 0 -13 -4 -24 -10 -24 -5 0 -10 -24 -10 -54 0 -30 -5 -58 -10 -61 -6 -4 -8 -16 -4 -27 4 -13 1 -24 -7 -29 -10 -6 -11 -11 -3 -16 12 -9 28 -44 25 -57 -6 -24 44 -98 102 -152 66 -60 66 -60 77 -135 7 -41 18 -96 26 -123 8 -27 14 -65 14 -83 0 -18 4 -33 9 -33 9 0 21 -79 14 -92 -8 -14 -83 36 -84 56 -1 17 -2 18 -6 4 -7 -26 -33 -22 -34 5 0 12 -3 16 -6 10 -7 -18 -38 -16 -53 2 -7 8 -21 15 -31 15 -17 0 -24 15 -20 46 1 6 -16 10 -41 10 -35 -1 -44 3 -54 23 -7 13 -23 33 -37 45 -46 40 -107 124 -107 147 0 19 -2 21 -10 9 -9 -13 -11 -13 -20 0 -5 8 -10 21 -10 28 0 6 -4 12 -10 12 -5 0 -44 44 -86 98 -73 90 -101 121 -114 122 -11 0 -5 -51 6 -58 7 -4 19 -23 27 -43 8 -20 31 -55 51 -77 20 -22 36 -43 36 -47 0 -4 12 -20 28 -35 15 -16 42 -46 59 -67 18 -21 55 -63 83 -93 27 -30 50 -59 50 -63 0 -12 42 -46 58 -47 6 0 12 -5 12 -10 0 -6 12 -16 27 -23 16 -6 30 -15 33 -18 3 -4 22 -14 42 -22 21 -9 38 -20 38 -26 0 -5 17 -15 38 -22 20 -6 49 -20 64 -30 14 -11 36 -18 48 -17 13 2 25 -3 27 -9 3 -8 -4 -13 -17 -13 -12 0 -18 -4 -15 -10 3 -5 21 -10 40 -10 39 0 52 -14 34 -37 -11 -13 -10 -17 6 -29 17 -13 18 -16 5 -24 -23 -15 -32 -12 -28 9 4 24 -29 61 -48 54 -8 -3 -14 0 -14 6 0 6 -6 11 -14 11 -8 0 -17 8 -20 17 -5 12 -10 13 -18 5 -14 -14 7 -43 27 -36 7 3 20 -4 28 -16 8 -12 20 -18 29 -15 11 5 17 -2 20 -24 5 -37 -7 -63 -21 -42 -5 7 -11 9 -14 4 -3 -5 -2 -15 4 -23 13 -22 11 -40 -6 -40 -10 0 -15 11 -16 33 0 17 -3 26 -6 20 -3 -8 -14 -11 -29 -7 -21 5 -24 3 -24 -20 0 -19 5 -26 19 -26 21 0 37 -17 27 -28 -4 -3 -14 -2 -24 4 -13 8 -21 5 -39 -17 -28 -32 -28 -36 -5 -42 9 -3 4 -4 -13 -3 -22 2 -29 8 -27 20 2 9 -2 16 -8 16 -5 0 -10 -7 -10 -15 0 -8 -5 -15 -10 -15 -6 0 -13 7 -16 15 -4 8 -12 15 -19 15 -7 0 -19 7 -26 16 -8 9 -30 27 -49 39 -42 27 -140 120 -140 133 0 6 -7 13 -15 16 -22 8 -32 -24 -13 -38 20 -15 39 -49 167 -306 101 -201 137 -268 165 -304 13 -17 26 -40 30 -51 3 -11 19 -36 36 -55 16 -19 30 -38 30 -43 0 -4 24 -44 54 -90 29 -45 54 -86 55 -92 1 -5 10 -19 20 -30 10 -11 29 -40 42 -65 13 -25 30 -49 36 -53 7 -4 13 -15 13 -22 0 -8 4 -15 9 -15 9 0 54 -70 49 -76 -6 -6 -23 11 -58 57 -19 26 -50 57 -67 69 -18 13 -33 26 -33 30 0 13 -97 110 -103 104 -7 -7 15 -39 133 -184 117 -146 466 -489 605 -595 22 -16 55 -44 75 -61 47 -41 189 -154 224 -179 16 -11 49 -35 75 -54 109 -81 261 -180 349 -226 l96 -50 38 -94 c21 -52 38 -102 38 -111 0 -9 4 -20 9 -26 16 -17 57 -164 92 -324 6 -30 15 -66 20 -80 17 -46 38 -136 45 -187 6 -51 6 -51 -24 -58 -17 -3 -36 -13 -43 -21 -7 -9 -20 -12 -33 -8 -12 4 -18 3 -14 -1 7 -7 -33 -45 -47 -45 -8 0 -80 -54 -106 -79 -9 -9 -28 -26 -42 -38 -14 -12 -31 -40 -38 -62 -11 -37 -10 -42 15 -71 14 -17 26 -36 26 -41 0 -14 88 -126 104 -132 7 -3 46 -45 86 -92 l72 -87 -4 -110 c-3 -74 -9 -112 -17 -118 -10 -5 -10 -9 -1 -15 7 -5 9 -24 5 -58 -3 -29 -7 -71 -9 -95 -2 -23 -6 -45 -9 -49 -4 -3 -2 -14 4 -25 6 -10 7 -28 4 -39 -7 -20 -7 -20 -20 -2 -12 16 -14 17 -20 1 -4 -9 -2 -26 5 -37 6 -12 7 -21 1 -21 -5 0 -11 5 -13 12 -3 8 -9 8 -24 0 -10 -6 -14 -12 -7 -12 21 0 2 -30 -20 -30 -11 0 -29 -7 -39 -17 -17 -15 -16 -17 24 -36 142 -64 472 -183 661 -238 549 -158 1051 -229 1632 -229 780 0 1475 135 2191 425 184 75 434 195 431 209 -1 6 7 11 18 11 11 0 23 4 27 10 12 16 -3 27 -28 21 -19 -5 -24 -2 -24 14 0 11 6 20 14 20 8 0 16 7 20 15 6 17 -9 21 -19 5 -16 -25 -22 -2 -29 98 -3 59 -9 127 -12 152 -12 80 -2 170 17 170 5 0 9 14 9 31 0 17 7 43 15 57 23 43 66 172 78 235 10 51 9 60 -9 85 -32 42 -70 56 -162 56 l-82 1 6 103 c3 57 15 163 25 235 21 134 25 157 53 306 9 47 18 105 21 130 3 25 10 62 14 81 5 19 12 58 16 85 4 28 17 89 31 137 13 48 24 95 24 105 0 17 40 63 55 63 4 0 22 12 40 28 47 39 94 77 140 110 22 16 69 55 103 85 35 31 82 68 105 84 22 15 50 37 62 48 12 11 37 32 56 47 57 46 133 108 159 132 14 13 59 52 100 88 130 112 160 140 289 268 129 129 145 146 195 215 16 22 35 47 42 55 38 42 68 84 169 239 6 8 29 44 53 79 23 35 42 67 42 73 0 5 3 9 8 9 4 0 20 24 36 53 16 28 34 58 40 66 16 20 75 123 82 144 4 9 10 17 15 17 5 0 9 5 9 11 0 6 8 23 18 37 11 15 36 59 57 97 21 39 52 93 70 120 17 28 60 106 95 175 34 68 66 131 71 140 5 8 24 49 44 90 40 85 85 170 101 191 5 8 19 34 29 59 10 25 25 54 32 65 13 18 14 17 13 -20 0 -46 8 -113 18 -135 7 -19 30 -138 72 -379 6 -36 13 -67 15 -71 2 -3 13 -53 25 -111 24 -117 97 -395 111 -421 5 -10 9 -26 9 -35 0 -10 7 -27 15 -37 8 -11 15 -29 15 -40 0 -25 78 -226 128 -326 34 -71 37 -81 42 -200 l5 -125 47 140 c204 605 298 1190 298 1850 0 761 -125 1421 -403 2135 -224 573 -588 1173 -996 1640 -190 217 -432 459 -598 598 l-51 42 9 -41 c6 -23 14 -50 19 -60 6 -10 9 -22 8 -26 -1 -4 4 -28 11 -53 58 -199 76 -289 63 -302 -18 -18 -15 -27 12 -38 20 -7 27 -22 41 -87 9 -43 25 -103 34 -133 16 -48 31 -107 71 -285 5 -22 18 -76 28 -120 40 -160 45 -203 38 -302 -3 -54 -10 -123 -15 -153 -5 -30 -16 -96 -25 -147 -8 -51 -22 -120 -30 -155 -8 -35 -22 -97 -30 -138 -26 -128 -93 -421 -117 -505 -12 -44 -25 -98 -30 -120 -4 -22 -17 -73 -28 -114 -12 -41 -21 -85 -21 -97 0 -12 -12 -53 -26 -90 -15 -38 -32 -89 -39 -114 -7 -25 -16 -53 -20 -64 -8 -17 -7 -17 26 -1 19 9 49 33 68 53 18 20 63 58 100 84 70 51 105 78 240 183 68 53 87 63 93 51 10 -18 -29 -220 -73 -373 -6 -21 -14 -54 -18 -73 -8 -35 -15 -55 -66 -185 -37 -96 -39 -105 -26 -105 6 0 11 4 11 9 0 5 26 36 58 69 31 32 79 83 106 111 68 74 91 59 55 -39 -5 -14 -16 -56 -24 -95 -9 -38 -39 -142 -67 -230 -61 -193 -95 -316 -120 -440 -6 -27 -14 -59 -19 -70 -9 -22 -49 -179 -124 -485 -70 -291 -189 -659 -254 -790 -18 -36 -48 -104 -67 -152 -18 -47 -40 -101 -48 -120 -9 -18 -36 -86 -61 -151 -48 -125 -93 -221 -141 -302 -17 -27 -33 -58 -37 -68 -10 -28 -115 -176 -174 -245 -29 -35 -53 -67 -53 -72 0 -5 -70 -78 -155 -162 -142 -141 -215 -209 -335 -315 -49 -44 -269 -211 -339 -258 -120 -81 -142 -95 -151 -95 -5 0 -13 -6 -17 -14 -7 -13 -176 -126 -188 -126 -3 0 -51 -30 -106 -68 -56 -37 -108 -71 -118 -77 -9 -5 -30 -19 -46 -31 -17 -11 -43 -28 -60 -36 -59 -30 -179 -99 -193 -111 -18 -14 -79 -49 -142 -79 -25 -11 -59 -32 -76 -44 -17 -13 -34 -24 -37 -24 -4 0 -30 -15 -59 -33 -29 -19 -60 -37 -68 -40 -8 -4 -33 -18 -55 -32 -22 -14 -50 -31 -62 -37 -13 -6 -23 -15 -23 -20 0 -4 -6 -8 -13 -8 -8 0 -21 -8 -31 -19 -9 -10 -34 -26 -56 -36 -21 -10 -42 -25 -45 -34 -4 -9 -9 -72 -12 -141 -3 -87 -9 -129 -19 -139 -7 -8 -16 -12 -19 -9 -3 3 -6 62 -7 132 -1 124 -1 126 -23 126 -13 0 -25 -6 -28 -13 -3 -8 -25 -23 -50 -35 -86 -41 -166 -106 -167 -138 0 -6 -6 -17 -14 -23 -8 -7 -27 -36 -42 -64 -26 -51 -114 -187 -153 -237 -15 -19 -23 -22 -32 -13 -9 9 -1 29 32 85 24 40 55 98 69 128 14 30 31 61 38 69 15 15 35 62 29 67 -2 2 -29 -9 -60 -25 -31 -16 -69 -34 -84 -40 -16 -6 -35 -15 -43 -20 -8 -5 -42 -16 -75 -26 -33 -9 -71 -22 -84 -29 -34 -16 -188 -14 -231 3 -74 29 -105 45 -173 90 -154 102 -183 121 -202 131 -11 6 -33 19 -50 30 -16 11 -41 26 -55 33 -14 6 -43 24 -65 38 -22 14 -96 61 -165 104 -69 43 -144 91 -167 106 -23 16 -45 29 -49 29 -4 0 -25 14 -48 30 -82 60 -270 191 -288 201 -11 6 -27 18 -37 27 -10 9 -44 34 -77 54 -32 21 -71 48 -86 60 -15 12 -30 20 -32 17 -2 -2 -5 -40 -7 -84 -3 -90 -16 -124 -58 -154 -59 -42 -101 -38 -162 16 -39 35 -76 133 -50 133 5 0 11 -12 14 -27 3 -16 20 -45 39 -66 42 -48 99 -60 138 -29 24 19 24 23 22 138 -2 82 -7 122 -16 129 -7 6 -14 13 -14 18 -1 4 -5 7 -8 6 -4 0 -10 5 -15 13 -5 7 -13 13 -18 13 -5 0 -19 12 -31 28 -12 15 -25 25 -30 22 -4 -3 -16 -31 -25 -63 -23 -80 -33 -102 -44 -102 -19 0 -22 41 -6 127 18 105 18 103 5 103 -13 0 -29 13 -82 67 -22 24 -49 45 -59 48 -10 3 -21 15 -24 25 -3 10 -14 21 -23 24 -10 3 -40 28 -67 56 -28 27 -55 50 -62 50 -6 0 -15 9 -18 20 -3 11 -10 20 -14 20 -5 0 -68 61 -142 136 -183 184 -182 184 -196 184 -7 0 -13 9 -13 20 0 22 -15 27 -24 8 -3 -7 -3 -3 0 9 3 12 -1 25 -8 30 -8 4 -21 20 -31 35 -9 15 -27 37 -39 50 -13 13 -30 34 -38 46 -10 15 -16 18 -22 10 -5 -9 -9 -6 -14 7 -15 45 -35 85 -48 92 -7 4 -19 19 -26 33 -12 23 -14 23 -20 6 -6 -19 -7 -19 -14 0 -4 11 -3 20 3 22 6 2 11 8 11 13 0 4 -6 6 -14 3 -11 -4 -13 0 -9 15 3 13 0 23 -10 27 -8 3 -18 16 -21 28 -7 30 -56 78 -72 72 -8 -3 -16 -1 -19 5 -4 5 1 12 9 15 22 8 20 19 -9 49 l-24 27 6 -39 c5 -32 3 -36 -8 -25 -7 7 -13 27 -14 44 0 26 -5 33 -25 39 l-25 6 28 13 c31 15 31 33 -1 38 -12 2 -22 9 -22 17 0 7 -8 16 -17 20 -17 6 -17 7 1 20 18 13 18 15 2 21 -10 4 -28 1 -42 -6 -13 -8 -27 -11 -30 -7 -3 3 7 12 23 20 25 14 26 16 9 23 -10 4 -27 2 -37 -5 -11 -6 -19 -7 -19 -2 0 5 5 11 12 13 19 7 -3 30 -23 25 -23 -6 -25 6 -4 23 20 16 8 32 -17 24 -17 -5 -20 -3 -14 11 7 19 -11 48 -25 39 -5 -3 -9 0 -9 5 0 6 7 11 15 11 8 0 15 7 15 15 0 20 -22 65 -32 65 -4 0 -8 12 -8 26 0 21 -4 24 -20 19 -11 -4 -20 -2 -20 4 0 6 5 11 12 11 9 0 9 3 0 12 -10 10 -15 10 -22 -2 -5 -8 -12 -11 -17 -7 -4 5 -1 12 6 17 8 4 11 15 8 25 -4 9 -11 14 -15 11 -5 -3 -19 8 -31 24 -17 23 -18 30 -7 30 8 0 18 -5 21 -10 5 -8 12 -7 22 1 13 11 12 14 -7 21 -21 8 -25 45 -4 41 5 -1 11 7 11 18 2 21 -13 26 -19 7 -3 -7 -12 -9 -23 -4 -14 5 -16 9 -7 18 20 20 15 40 -8 33 -14 -4 -20 -2 -20 8 0 9 4 17 10 19 17 6 -1 47 -23 50 -29 4 -33 26 -5 37 20 8 17 10 -19 10 -33 1 -43 5 -43 17 0 10 6 14 15 10 8 -3 22 -3 31 1 23 9 -3 23 -43 23 -26 0 -33 -4 -33 -20 0 -11 -7 -20 -15 -20 -9 0 -15 9 -15 24 0 14 -4 28 -10 31 -5 3 -10 19 -10 35 0 15 -6 30 -13 33 -8 3 -12 22 -12 48 1 32 -5 51 -22 68 -14 15 -19 29 -13 35 5 7 3 19 -6 30 -12 17 -11 21 4 33 12 10 14 16 5 19 -18 8 -16 44 2 44 8 0 15 4 15 9 0 15 -18 23 -25 11 -11 -18 -25 -10 -25 15 0 14 -5 25 -11 25 -7 0 -9 9 -6 23 3 12 -1 31 -9 41 -8 11 -14 40 -14 65 0 25 -7 60 -16 76 -9 17 -13 43 -10 60 2 17 2 24 -1 18 -10 -27 -24 -11 -22 25 1 20 -1 44 -4 52 -14 39 -27 90 -36 145 -6 33 -13 71 -17 85 -4 14 -7 43 -8 65 -1 28 -5 39 -14 37 -11 -2 -12 6 -7 36 5 29 2 42 -10 52 -9 7 -13 21 -10 31 3 10 2 35 -4 56 -5 21 -13 67 -16 102 l-7 64 38 -8 c22 -4 44 -11 50 -16 5 -4 30 -11 54 -14 24 -3 48 -9 54 -14 21 -17 107 -30 112 -17 2 6 -36 54 -86 106 -50 52 -99 104 -110 116 -11 12 -20 26 -20 31 0 5 -9 18 -20 28 -11 10 -20 22 -20 27 0 10 -3 14 -52 73 -57 68 -70 95 -78 169 -5 39 -16 98 -25 131 -9 33 -23 92 -31 130 -8 39 -21 97 -29 130 -9 33 -24 96 -34 140 -10 44 -27 112 -36 150 -20 82 -20 81 -84 379 -10 49 -17 95 -14 102 2 6 0 15 -6 19 -6 3 -11 19 -11 34 0 15 -4 31 -9 37 -4 5 -14 45 -21 88 -6 43 -18 96 -25 117 -12 34 -11 49 5 49 3 0 12 -15 18 -34 7 -19 26 -51 42 -71 17 -21 30 -42 30 -48 0 -5 12 -24 28 -42 15 -18 40 -55 57 -81 32 -52 41 -64 86 -114 16 -18 42 -49 56 -69 15 -20 45 -56 66 -81 127 -148 411 -408 385 -352 -2 4 -10 21 -17 37 -7 17 -17 37 -22 45 -5 8 -12 22 -15 30 -3 8 -9 22 -13 30 -9 16 -50 159 -71 245 -6 28 -17 60 -23 72 -6 13 -8 26 -4 29 3 4 0 18 -7 33 -8 14 -21 69 -31 121 -9 52 -21 103 -26 112 -5 10 -9 28 -9 40 0 21 -31 202 -51 298 -15 74 -21 178 -10 184 5 3 22 1 38 -6 15 -6 33 -13 38 -14 6 -1 12 -3 15 -4 3 -1 20 -3 38 -6 18 -2 41 -8 51 -14 12 -6 22 -5 29 2 5 5 15 7 21 4 21 -13 11 -32 -29 -55 -41 -23 -45 -41 -10 -41 10 0 25 8 32 18 20 26 57 44 78 37 13 -4 27 -31 45 -85 30 -90 113 -220 213 -335 39 -44 58 -46 37 -4 -18 34 -17 70 2 76 7 3 37 -19 68 -48 63 -60 74 -51 15 13 -22 24 -40 46 -40 50 0 4 -13 35 -29 68 -67 138 -65 149 45 230 41 30 83 62 92 72 33 32 128 91 202 125 66 31 121 51 260 94 19 6 53 9 75 7 l39 -3 62 -123 c34 -67 68 -130 77 -140 8 -9 25 -37 37 -60 12 -24 24 -41 27 -38 3 3 7 89 8 192 2 134 6 188 15 194 29 18 358 -37 386 -65 9 -8 26 -15 38 -15 12 0 47 -13 77 -29 30 -16 70 -32 89 -36 19 -4 40 -11 46 -16 23 -18 130 -69 146 -69 9 0 20 -4 23 -10 3 -5 25 -18 48 -29 42 -20 119 -72 168 -114 98 -83 125 -103 145 -108 31 -9 36 -2 20 30 -20 39 -28 81 -16 81 5 0 10 -6 10 -14 0 -17 28 -41 37 -32 4 4 2 16 -5 26 -10 16 -10 20 2 20 8 0 17 6 19 13 3 6 6 -9 6 -35 1 -27 6 -48 11 -48 6 0 10 5 10 10 0 6 5 10 10 10 7 0 7 -6 0 -19 -12 -23 7 -42 20 -21 4 7 13 9 19 6 7 -4 11 1 11 13 0 32 24 30 35 -3 7 -22 16 -30 30 -29 10 1 25 -6 32 -15 11 -15 12 -14 13 9 0 14 -5 30 -12 37 -6 6 -8 15 -3 19 4 5 10 3 12 -3 4 -13 53 4 53 19 0 4 9 3 21 -4 14 -7 24 -8 31 -1 12 12 1 35 -13 27 -5 -4 -9 -1 -9 5 0 6 -8 10 -17 8 -13 -2 -19 5 -21 25 -2 15 -8 27 -13 27 -5 0 -9 7 -9 15 0 28 28 15 35 -15 7 -30 35 -43 35 -15 0 8 9 31 20 51 22 38 21 46 -8 50 -9 2 -18 8 -20 13 -4 12 -32 15 -32 3 0 -4 9 -13 21 -20 14 -9 19 -21 17 -39 -4 -36 -28 -43 -28 -8 0 14 -7 37 -16 51 -22 33 -15 40 41 43 18 1 25 7 25 21 0 12 -5 17 -14 14 -8 -3 -17 0 -21 6 -4 6 6 15 24 21 16 6 37 21 46 35 l15 24 -57 0 c-76 1 -141 14 -160 32 -34 35 -65 325 -64 605 0 161 6 233 21 233 4 0 11 -39 16 -87 4 -49 8 -90 9 -93 1 -3 6 -22 13 -43 6 -21 9 -44 6 -51 -7 -19 22 -39 46 -31 11 3 20 11 20 16 0 6 -5 7 -10 4 -6 -3 -15 6 -20 20 -13 35 -13 68 1 60 6 -4 8 -13 5 -21 -3 -8 1 -14 10 -14 12 0 15 6 10 23 -3 12 -6 25 -6 30 0 4 -7 7 -15 7 -8 0 -15 5 -15 10 0 6 7 10 15 10 8 0 15 -5 15 -11 0 -6 5 -9 11 -7 13 4 40 78 33 90 -3 4 2 18 10 30 8 13 18 42 22 64 15 96 45 85 72 -28 60 -249 150 -494 173 -471 5 5 6 28 1 54 -12 62 -6 71 28 38 16 -16 39 -29 52 -29 41 0 84 -36 199 -167 131 -148 250 -265 264 -260 12 5 12 57 -5 327 -12 202 -10 925 4 1065 3 28 8 82 11 120 30 342 45 428 65 395 5 -8 11 -41 15 -74 6 -60 19 -124 51 -256 8 -36 23 -101 32 -145 15 -69 20 -80 42 -86 24 -7 24 -7 3 -8 -24 -1 -31 -25 -12 -37 6 -3 9 -19 5 -35 -3 -15 -1 -31 4 -34 6 -3 10 -16 10 -27 0 -43 23 -99 39 -96 18 4 28 37 14 47 -16 11 -33 60 -23 66 6 4 10 -1 10 -10 0 -9 9 -29 20 -45 11 -15 17 -30 13 -33 -3 -4 0 -13 6 -21 15 -18 6 -37 -14 -29 -8 3 -23 2 -32 -1 -12 -5 -14 -9 -5 -18 7 -7 12 -21 12 -32 0 -12 5 -28 10 -36 9 -13 11 -13 20 0 9 13 11 13 20 0 8 -13 10 -13 10 1 0 9 10 19 23 23 32 8 57 97 58 211 2 103 5 115 29 115 17 0 28 -23 77 -170 10 -30 21 -56 26 -58 4 -2 7 -12 7 -22 0 -10 11 -38 25 -61 14 -24 25 -49 25 -56 0 -6 20 -53 44 -105 24 -51 54 -122 66 -157 18 -56 53 -129 145 -312 32 -63 66 -101 149 -167 39 -31 90 -75 114 -99 24 -24 46 -43 50 -43 3 0 15 -9 27 -19 11 -11 38 -36 60 -55 22 -19 36 -38 32 -43 -19 -19 -384 -26 -434 -8 -46 15 -23 -21 43 -70 56 -41 114 -70 197 -98 9 -4 17 -13 17 -22 0 -19 -39 -103 -51 -111 -5 -3 -9 -11 -9 -19 0 -8 -13 -29 -30 -47 -39 -43 -38 -56 8 -64 20 -4 42 -10 47 -14 6 -4 28 -13 50 -20 22 -7 45 -16 50 -20 6 -5 46 -18 90 -30 44 -12 96 -26 115 -32 19 -6 56 -12 81 -15 43 -4 50 -1 115 48 38 28 81 61 95 73 57 48 219 117 307 131 49 8 53 -1 20 -47 -31 -44 -88 -179 -88 -208 0 -32 -17 -50 -48 -50 -35 0 -16 -18 26 -25 75 -12 217 -58 307 -101 75 -35 219 -85 310 -108 131 -33 344 -51 364 -31 10 10 14 46 15 144 0 151 -7 171 -60 151 -33 -13 -54 -19 -104 -29 -27 -5 -31 -9 -20 -16 8 -5 27 -8 42 -7 32 3 36 -11 14 -53 -13 -26 -14 -26 -21 -6 -6 19 -8 19 -21 6 -13 -13 -17 -12 -34 5 -11 11 -20 25 -20 31 0 6 -8 8 -19 4 -21 -6 -46 18 -36 35 4 6 21 8 43 4 l37 -7 -23 26 c-37 39 -40 99 -9 146 22 34 33 41 72 46 25 4 45 10 45 14 0 14 -59 97 -89 125 -57 54 -47 60 97 53 155 -7 217 -14 260 -26 18 -6 39 -8 47 -5 7 3 16 1 20 -5 12 -20 25 -11 26 17 l1 27 7 -30 c5 -24 11 -30 33 -30 15 0 33 -6 39 -12 7 -7 17 -13 22 -13 13 0 117 -92 117 -105 0 -5 10 -21 23 -35 13 -14 32 -40 42 -57 11 -18 27 -33 37 -33 11 0 18 -7 18 -18 0 -10 5 -23 11 -29 19 -19 2 -55 -57 -118 -30 -33 -61 -66 -67 -74 -18 -22 100 47 165 96 38 29 66 43 87 43 28 0 40 12 129 133 134 182 151 208 158 245 6 28 2 36 -33 69 -43 42 -69 63 -107 88 -34 23 -33 41 9 94 55 70 45 91 -23 47 -73 -49 -122 -43 -222 23 -30 21 -81 52 -112 70 -32 18 -60 37 -64 42 -3 5 8 30 25 56 17 26 31 50 31 55 0 16 -30 7 -79 -23 l-50 -31 -146 7 c-80 4 -145 10 -145 15 0 12 114 114 149 132 38 21 33 35 -14 44 -54 10 -61 26 -41 89 10 34 25 59 39 67 34 18 158 59 170 55 9 -3 11 -155 2 -225 -9 -70 46 -54 60 18 15 78 69 246 84 261 9 10 41 24 72 33 31 9 63 23 70 33 12 15 12 16 -4 10 -10 -4 -43 -10 -73 -13 -61 -8 -62 -6 -44 71 19 84 39 309 46 515 3 118 10 225 15 238 17 44 10 58 -53 103 -172 124 -502 321 -713 427 -196 98 -551 249 -561 239 -2 -2 0 -17 6 -33 5 -16 17 -56 26 -89 10 -33 23 -67 30 -75 6 -8 15 -33 18 -55 6 -35 27 -108 95 -330 10 -33 27 -96 36 -140 10 -44 26 -105 35 -135 10 -30 21 -76 25 -102 4 -27 11 -48 15 -48 4 0 11 -26 15 -57 4 -32 12 -64 17 -71 6 -7 9 -15 6 -18 -3 -2 3 -39 14 -82 22 -90 31 -129 52 -232 8 -41 21 -106 29 -145 9 -38 18 -97 22 -130 3 -33 11 -81 17 -108 8 -36 7 -51 -2 -62 -15 -18 -234 -125 -407 -199 -153 -66 -292 -117 -427 -157 -82 -24 -102 -27 -113 -16 -47 47 -207 502 -293 832 -19 73 -20 100 -15 300 3 121 7 382 10 580 5 318 27 741 41 786 4 13 -14 20 -98 37 -109 23 -296 56 -364 66 l-40 6 0 -84 c1 -46 4 -82 8 -80 4 2 9 0 13 -6 3 -5 -1 -10 -9 -10 -9 0 -16 -4 -16 -10 0 -5 4 -10 10 -10 5 0 8 -13 7 -30 -1 -16 -5 -30 -9 -30 -13 0 -9 -38 5 -43 8 -4 7 -6 -3 -6 -16 -1 -18 -58 -5 -113 6 -22 4 -28 -9 -28 -9 0 -16 -4 -16 -10 0 -5 7 -10 15 -10 20 0 19 -15 -2 -52 -17 -28 -17 -30 0 -39 9 -6 17 -17 17 -24 0 -18 -12 -19 -28 -3 -9 9 -12 9 -12 0 0 -7 -15 -13 -32 -13 -32 -1 -32 -1 6 -9 22 -4 46 -16 53 -26 13 -17 12 -19 -6 -22 -13 -2 -21 -11 -21 -23 0 -10 -4 -19 -10 -19 -5 0 -10 -6 -10 -13 0 -7 -9 -20 -21 -30 -19 -17 -21 -17 -39 5 -11 13 -17 31 -14 41 3 10 0 17 -9 17 -9 0 -17 15 -21 42 -4 23 -11 45 -17 48 -5 4 -16 35 -24 71 -8 35 -21 87 -31 114 -9 28 -18 56 -20 63 -5 17 -24 15 -24 -3 0 -8 -7 -15 -15 -15 -18 0 -20 -21 -4 -37 13 -13 4 -47 -10 -39 -5 3 -11 -3 -14 -14 -3 -11 -1 -23 4 -26 17 -10 9 -34 -11 -34 -23 0 -26 -10 -8 -28 14 -14 4 -27 -15 -19 -19 7 -29 64 -16 89 8 15 8 22 -1 28 -7 5 -10 16 -6 25 3 10 1 24 -5 32 -7 8 -14 40 -16 71 -1 31 -6 82 -10 112 -3 30 -5 59 -4 64 1 5 -3 12 -9 16 -9 5 -8 13 2 30 10 17 10 24 1 27 -8 3 -10 20 -6 52 l5 48 -53 6 c-30 4 -152 7 -271 7 l-217 0 -10 -57z m3299 -1796 c7 -96 9 -172 4 -176 -15 -13 -127 -52 -132 -46 -7 6 4 45 47 169 17 49 31 99 31 112 0 38 23 125 31 117 4 -5 13 -84 19 -176z m-1120 -1329 c34 -23 58 -72 59 -120 1 -32 -31 -58 -60 -51 -15 4 -22 0 -26 -16 l-6 -22 -11 22 c-14 28 -42 40 -33 14 10 -25 -1 -37 -24 -25 -21 12 -26 40 -6 40 7 1 6 5 -5 13 -15 12 -23 47 -20 93 3 30 47 74 75 74 13 0 39 -10 57 -22z m-6418 -847 c75 -86 152 -258 146 -328 -1 -19 2 -37 7 -41 12 -8 17 -26 19 -67 1 -16 5 -37 8 -45 11 -25 16 -150 7 -144 -5 3 -9 13 -9 23 0 9 -4 21 -10 27 -19 19 -120 216 -120 235 0 10 -9 24 -20 31 -11 7 -20 19 -20 26 0 8 -18 57 -40 109 -22 53 -40 103 -40 111 0 7 -6 28 -14 45 -50 116 -50 118 -35 127 14 9 29 -4 121 -109z"/>
<path d="M3726 8703 c-44 -7 -106 -25 -138 -40 -109 -49 -242 -218 -262 -333 -3 -19 -3 -30 -1 -24 3 6 17 9 31 6 14 -2 37 1 50 9 31 16 89 -1 116 -35 16 -19 18 -19 18 -3 0 15 5 17 29 12 17 -3 52 0 80 9 39 11 51 12 51 2 0 -6 -4 -16 -9 -21 -5 -6 -14 -32 -19 -60 -9 -43 -8 -56 9 -94 26 -59 24 -67 -13 -81 -99 -36 -99 -40 2 -36 52 2 145 14 205 25 136 27 128 25 199 35 32 5 70 15 85 22 15 8 40 11 62 8 l37 -6 -5 63 c-3 35 -12 73 -19 84 -13 18 -14 16 -14 -18 0 -24 -4 -36 -10 -32 -6 4 -8 16 -4 27 4 14 2 19 -7 16 -21 -7 -30 -56 -13 -73 13 -12 11 -16 -10 -30 -14 -9 -53 -18 -88 -21 -35 -2 -76 -5 -93 -7 -29 -2 -30 0 -33 42 -2 26 -13 59 -28 80 -25 37 -31 75 -14 86 6 4 -3 19 -21 36 -26 24 -30 35 -26 62 6 43 -22 81 -80 107 -48 21 -69 25 -76 13 -2 -5 -2 -2 -1 5 2 6 -2 12 -8 12 -9 0 -9 3 0 12 10 10 17 10 32 0 17 -10 21 -10 25 0 10 26 168 2 217 -33 15 -10 32 -19 38 -19 6 0 28 -11 49 -24 32 -21 42 -23 56 -12 16 12 16 14 0 47 -10 19 -24 38 -31 42 -8 4 -14 13 -14 19 0 18 -52 68 -71 68 -9 0 -22 7 -29 15 -7 8 -27 17 -46 21 -19 3 -36 10 -39 14 -2 4 -15 5 -29 3 -13 -3 -32 -1 -42 5 -13 6 -46 4 -98 -5z"/>
<path d="M5273 7695 c-7 -17 -12 -52 -12 -80 -1 -85 -1 -85 -24 -86 -20 -1 -20 -2 3 -8 17 -5 21 -9 12 -15 -6 -4 -12 -23 -12 -42 0 -24 -5 -34 -15 -34 -9 0 -15 -9 -15 -25 0 -16 -6 -25 -15 -25 -8 0 -15 7 -15 15 0 8 -6 15 -13 15 -17 0 -37 -20 -37 -37 0 -16 -39 -74 -57 -86 -7 -4 -13 -15 -13 -24 0 -9 -12 -32 -27 -52 -33 -43 -58 -91 -68 -128 -3 -15 -14 -38 -24 -52 -30 -43 -51 -164 -31 -176 5 -3 10 -22 10 -42 0 -41 37 -171 55 -193 7 -8 22 -34 34 -57 26 -53 69 -115 84 -125 7 -4 12 -13 12 -20 0 -19 48 -88 62 -88 6 0 13 6 16 13 2 6 11 -11 20 -40 20 -68 35 -93 52 -93 13 0 14 15 10 93 -27 473 -27 539 0 762 8 66 16 165 19 220 16 299 17 364 9 400 l-9 39 -11 -29z"/>
<path d="M824 6409 c4 -24 9 -69 12 -99 6 -79 54 -166 154 -286 47 -56 96 -117 110 -135 14 -18 31 -37 38 -43 7 -6 41 -39 75 -72 67 -66 132 -114 153 -114 20 0 17 49 -3 57 -24 10 -63 45 -63 57 0 6 -18 19 -40 29 -22 9 -40 23 -40 31 0 8 -12 22 -27 31 -16 9 -46 39 -68 67 -22 28 -61 73 -87 101 -27 27 -48 51 -48 52 0 2 -14 18 -31 36 -18 19 -45 58 -61 86 -17 29 -35 53 -40 53 -7 0 -7 4 0 13 7 8 7 18 2 27 -5 8 -7 31 -4 50 6 42 -7 92 -26 98 -10 4 -12 -5 -6 -39z"/>
<path d="M4329 4915 c-25 -7 -55 -18 -67 -24 -26 -14 -72 -14 -72 0 0 27 -37 -1 -65 -48 -16 -29 -58 -98 -91 -155 -34 -57 -87 -157 -119 -222 -50 -103 -59 -130 -63 -191 -8 -127 56 -302 132 -357 47 -34 60 -34 150 -4 39 13 153 36 254 52 100 16 182 33 182 37 0 5 -15 7 -32 4 -162 -28 -183 -29 -242 -14 -51 14 -61 14 -73 1 -8 -8 -25 -14 -39 -14 -13 0 -32 -4 -42 -9 -89 -47 -139 -47 -149 0 -3 18 -12 29 -22 29 -36 0 -85 225 -58 268 12 18 27 15 27 -7 0 -11 5 -23 10 -26 6 -3 10 -14 10 -23 0 -9 4 -24 10 -32 7 -12 13 -9 30 13 12 15 26 27 31 27 5 0 1 -10 -11 -22 -25 -27 -25 -27 5 -62 27 -31 33 -56 13 -56 -20 0 -35 13 -41 35 -3 12 -5 4 -6 -17 -1 -29 3 -38 15 -38 11 0 15 -6 11 -20 -5 -21 28 -49 41 -34 4 4 1 9 -5 11 -17 6 -16 38 1 52 9 8 22 8 39 2 13 -5 33 -8 43 -6 11 2 21 4 23 4 3 1 0 6 -7 13 -13 13 -17 68 -4 68 17 0 51 41 46 55 -7 17 -34 21 -34 5 0 -5 -8 -10 -18 -10 -14 0 -18 9 -19 40 -2 43 5 54 27 39 10 -6 11 -9 3 -9 -28 0 -11 -17 17 -18 19 0 30 4 30 13 0 9 -6 12 -17 8 -17 -5 -17 -4 0 13 18 18 19 18 32 0 7 -10 18 -15 24 -11 16 9 13 25 -3 19 -11 -4 -13 0 -9 16 4 14 1 20 -7 18 -7 -2 -15 3 -17 10 -3 7 4 12 19 13 13 0 53 1 90 2 51 2 72 7 85 20 17 18 17 19 -24 12 -32 -5 -50 -2 -73 11 -16 10 -30 22 -30 26 0 4 -6 8 -13 8 -8 0 -22 9 -33 21 -21 23 -51 20 -95 -12 l-27 -19 11 25 c9 18 20 25 42 25 l30 0 -25 19 c-26 21 -40 22 -52 6 -5 -6 -8 -5 -8 3 0 7 11 17 24 22 36 13 40 29 12 40 -14 5 -26 14 -26 20 0 6 -5 8 -10 5 -6 -4 -10 -14 -8 -23 1 -10 -1 -18 -5 -19 -17 -7 -26 -2 -21 11 3 7 -2 16 -11 19 -18 8 -12 43 17 95 10 18 18 39 18 46 0 7 9 25 20 39 11 14 20 32 20 40 0 26 35 47 78 47 22 0 43 4 47 9 3 6 35 24 70 40 88 42 89 49 4 26z"/>
<path d="M7010 4783 c1 -15 27 -43 40 -43 27 0 91 -64 116 -117 24 -50 25 -56 11 -71 -15 -14 -15 -13 -11 5 3 12 1 24 -6 28 -13 8 -41 -24 -36 -41 10 -27 -17 -102 -48 -137 -18 -20 -37 -37 -43 -37 -6 0 -22 -11 -36 -24 -22 -20 -33 -23 -69 -19 -24 3 -55 12 -70 19 -55 28 -51 12 7 -25 67 -43 129 -98 116 -103 -4 -2 -1 -19 7 -38 8 -19 14 -58 13 -86 -1 -29 2 -55 8 -58 16 -10 2 -79 -22 -104 -17 -19 -19 -26 -10 -42 11 -16 8 -20 -15 -28 -15 -6 -36 -17 -46 -25 -18 -13 -17 -15 17 -21 80 -15 163 26 286 140 105 97 171 203 171 275 0 59 -98 287 -164 384 -12 17 -26 37 -31 47 -61 101 -98 136 -115 108 -6 -9 -15 -8 -39 4 -17 9 -31 13 -31 9z"/>
<path d="M5568 3490 c-70 -3 -131 -9 -137 -15 -21 -23 -12 -85 14 -85 6 0 20 -9 30 -20 10 -11 22 -20 28 -20 5 0 21 -8 35 -18 35 -23 84 -39 150 -47 64 -8 108 9 158 65 19 20 50 48 69 61 56 38 47 54 -37 67 -99 16 -161 18 -310 12z"/>
</g>
</svg>
