<?xml version="1.0" standalone="no"?>
<!DOCTYPE svg PUBLIC "-//W3C//DTD SVG 20010904//EN" "http://www.w3.org/TR/2001/REC-SVG-20010904/DTD/svg10.dtd">
<svg xmlns="http://www.w3.org/2000/svg" version="1.0" width="736.000000pt" height="736.000000pt" viewBox="0 0 736.000000 736.000000" preserveAspectRatio="xMidYMid meet">
<metadata>
Created by potrace 1.16, written by Peter Selinger 2001-2019
<meta name="Producer" content="Online-Convert"/></metadata>
<g transform="translate(0.000000,736.000000) scale(0.100000,-0.100000)" fill="#000000" stroke="none">
<path d="M0 3680 l0 -3680 3210 0 c3186 0 3210 0 3210 20 0 13 -5 18 -15 14 -8 -4 -15 -2 -15 4 0 5 -10 12 -22 15 -13 4 -32 12 -42 20 -19 14 -19 15 3 27 19 10 25 9 32 -1 6 -10 9 -8 9 7 0 22 24 39 40 29 4 -3 15 6 24 20 9 14 23 25 30 25 7 0 19 7 26 15 7 8 20 15 30 15 10 0 23 7 30 15 7 8 16 13 20 10 5 -3 16 2 25 11 15 15 18 15 41 -6 13 -13 24 -27 24 -32 0 -5 5 -14 10 -21 44 -53 103 -145 104 -162 1 -20 7 -20 293 -23 l293 -2 0 3000 c0 2854 -1 3000 -17 3000 -16 1 -16 2 -2 13 17 13 25 112 8 101 -5 -3 -9 2 -9 10 0 9 5 16 10 16 18 0 7 83 -14 104 -10 10 -21 14 -25 9 -3 -6 -13 -10 -22 -10 -11 0 -16 10 -16 33 0 18 4 31 9 28 5 -3 6 7 3 23 -5 26 -5 27 5 4 8 -18 15 -22 34 -17 15 4 26 1 28 -6 3 -7 5 7 6 30 1 27 -2 41 -8 37 -6 -3 -10 -1 -10 5 0 6 -5 8 -11 4 -8 -5 -6 -10 5 -16 25 -14 20 -40 -6 -36 -19 2 -23 9 -23 40 0 28 -4 36 -17 35 -19 -1 -26 -17 -8 -17 6 0 10 -7 10 -16 0 -9 -5 -12 -12 -8 -6 4 -8 3 -5 -2 3 -6 3 -15 -1 -20 -11 -16 -68 -33 -82 -24 -7 5 -2 8 15 8 40 0 50 23 20 45 -28 21 -25 37 8 37 26 1 57 22 57 40 0 10 3 10 15 0 11 -9 15 -9 15 -1 0 6 8 15 19 19 13 5 16 12 10 27 -6 17 -8 17 -8 3 -1 -19 -21 -26 -21 -7 0 5 -5 7 -10 4 -6 -4 -8 -11 -5 -16 6 -8 -8 -13 -27 -10 -4 0 -4 -7 -1 -16 4 -10 2 -14 -4 -10 -6 4 -16 0 -23 -8 -14 -17 -40 -20 -40 -5 0 6 -7 10 -16 10 -12 0 -14 -4 -7 -12 15 -20 4 -90 -13 -84 -9 3 -14 -2 -14 -14 0 -11 -7 -20 -16 -20 -8 0 -12 5 -9 10 3 6 -1 10 -9 10 -12 0 -15 -10 -14 -45 1 -25 5 -45 9 -45 4 0 7 -11 7 -25 0 -13 -4 -22 -9 -19 -18 11 -9 -78 9 -92 15 -12 15 -15 2 -24 -8 -5 -19 -9 -25 -9 -5 0 -4 3 3 6 10 4 10 9 -4 24 -9 10 -14 25 -10 34 3 9 2 13 -4 10 -6 -3 -10 -25 -9 -48 1 -23 -2 -68 -7 -100 -5 -46 -4 -61 7 -68 12 -7 12 -9 -1 -9 -12 0 -13 -2 -1 -9 7 -5 10 -14 7 -20 -4 -6 -12 -9 -17 -5 -6 3 -7 -4 -3 -20 4 -18 2 -28 -9 -32 -9 -3 -19 -20 -23 -36 -5 -26 -2 -34 17 -49 13 -10 20 -21 16 -25 -4 -4 -7 -2 -7 4 0 7 -5 12 -11 12 -6 0 -8 -9 -4 -20 5 -15 3 -18 -8 -14 -9 3 -13 14 -11 27 4 19 3 18 -6 -3 -6 -14 -10 -40 -8 -57 2 -18 2 -33 -2 -33 -3 0 -6 -78 -8 -173 -2 -190 -10 -287 -22 -287 -6 0 -19 138 -25 292 -2 31 -6 61 -9 66 -3 6 -4 17 -1 24 4 9 0 15 -10 15 -11 0 -14 -7 -10 -21 5 -19 5 -19 -5 -4 -8 13 -8 24 0 37 13 26 13 31 -4 31 -20 0 -27 48 -7 55 13 5 11 9 -12 23 -29 18 -37 35 -12 26 8 -4 15 -10 15 -16 0 -5 5 -6 10 -3 16 10 12 22 -9 28 -16 4 -19 12 -16 40 2 27 -1 36 -15 40 -13 3 -16 11 -13 31 5 22 2 25 -12 20 -15 -6 -17 -2 -13 34 2 23 0 42 -4 42 -13 0 -9 48 5 53 7 4 4 8 -8 12 -12 3 -25 16 -30 28 -7 15 -17 21 -33 19 -21 -3 -22 -1 -12 17 6 12 15 21 20 21 6 0 10 5 10 10 0 6 -3 9 -8 9 -4 -1 -22 4 -39 11 -34 12 -37 31 -4 25 11 -2 22 3 25 12 4 11 2 13 -9 9 -12 -4 -14 0 -9 19 8 31 -3 50 -21 35 -9 -8 -14 -6 -19 5 -3 9 0 15 9 15 8 0 15 5 15 11 0 5 -4 7 -10 4 -5 -3 -10 1 -10 9 0 9 -5 16 -11 16 -6 0 -8 -8 -4 -19 3 -10 -1 -24 -10 -31 -10 -8 -15 -9 -15 -1 0 6 -5 11 -11 11 -5 0 -7 -4 -4 -10 3 -5 1 -10 -4 -10 -6 0 -11 7 -11 16 0 11 6 15 20 11 26 -7 26 14 0 30 -17 11 -19 10 -14 -5 5 -15 4 -15 -10 2 -8 10 -19 15 -25 11 -6 -3 -11 -2 -11 2 0 5 14 14 31 20 55 21 20 50 -64 52 -35 1 -36 2 -25 21 7 11 14 16 16 10 6 -16 32 -12 32 5 0 9 -6 12 -15 9 -9 -4 -15 0 -15 7 0 12 -2 12 -9 0 -6 -9 -11 -10 -15 -3 -4 6 -13 9 -21 5 -9 -3 -15 1 -15 10 0 8 -7 18 -16 21 -10 4 -14 14 -11 26 3 11 2 18 -3 15 -12 -7 -19 -45 -9 -45 17 0 9 -20 -8 -20 -16 -1 -16 -3 2 -18 32 -26 37 -48 11 -48 -26 0 -54 25 -39 34 6 4 7 16 3 27 -6 16 -9 11 -17 -25 -5 -25 -15 -44 -21 -43 -7 2 -12 -3 -12 -11 0 -9 7 -12 20 -9 11 3 20 0 20 -6 0 -5 -7 -8 -15 -5 -10 4 -15 0 -16 -12 0 -15 -2 -15 -6 -4 -3 8 -9 17 -13 20 -4 3 -11 19 -14 36 -6 27 -4 32 14 37 18 5 21 2 17 -14 -3 -10 -1 -19 4 -19 10 0 12 40 3 64 -9 24 -23 19 -17 -5 6 -20 3 -21 -29 -15 -27 5 -35 3 -35 -9 0 -8 7 -15 14 -15 24 0 4 -19 -30 -28 -18 -5 -31 -15 -29 -22 1 -6 -3 -18 -9 -26 -8 -10 -8 -14 0 -14 6 0 11 -5 11 -11 0 -5 -4 -7 -10 -4 -6 3 -10 1 -10 -4 0 -6 -10 -11 -21 -11 -19 0 -21 4 -16 40 4 33 2 40 -11 40 -15 1 -15 2 1 11 21 12 22 39 1 39 -8 0 -13 -4 -10 -8 2 -4 -4 -9 -16 -9 l-20 -2 20 18 c14 12 18 21 11 32 -5 8 -9 9 -9 3 0 -14 -30 -13 -46 1 -14 12 7 60 28 68 8 4 7 6 -4 6 -11 1 -18 14 -23 42 -6 36 -8 38 -20 22 -7 -10 -17 -15 -21 -10 -4 4 -2 7 5 7 8 0 10 7 6 19 -4 14 0 21 13 25 11 4 19 14 18 24 -1 22 -47 52 -65 42 -16 -8 -48 16 -37 28 4 3 11 0 15 -7 7 -10 13 -10 29 -2 15 8 21 8 25 -2 2 -6 7 -9 11 -6 3 3 4 13 0 22 -4 12 -11 14 -30 7 -20 -8 -24 -7 -24 10 0 11 -7 20 -15 20 -18 0 -20 -16 -2 -23 9 -4 9 -6 0 -6 -7 -1 -19 13 -28 29 -9 17 -20 30 -25 30 -6 0 -10 5 -10 11 0 6 9 8 20 4 11 -4 20 -2 20 4 0 6 -4 11 -9 11 -12 0 -12 82 1 97 13 16 -4 17 -19 2 -6 -6 -9 -18 -6 -27 5 -11 2 -13 -6 -7 -7 4 -11 18 -8 31 2 14 0 27 -4 30 -15 9 -10 24 9 25 14 0 14 2 2 7 -20 9 -26 62 -8 73 10 7 8 9 -6 9 -18 0 -18 1 0 28 13 20 14 24 2 14 -13 -11 -16 -9 -20 13 -3 14 -1 25 4 25 4 0 1 11 -7 24 -12 17 -14 35 -9 60 4 23 2 42 -6 51 -6 8 -13 34 -14 57 -2 41 -4 43 -36 46 -30 3 -32 2 -28 -22 3 -14 1 -23 -3 -20 -5 3 -9 -2 -9 -10 0 -9 -6 -16 -12 -16 -9 0 -10 -3 -2 -8 17 -11 12 -82 -6 -83 -10 0 -11 -2 -2 -6 21 -8 13 -21 -9 -16 -12 4 -25 0 -30 -8 -14 -22 -10 -35 4 -14 15 20 37 13 37 -12 0 -13 -2 -13 -17 -2 -15 13 -15 12 -4 -9 7 -13 10 -36 6 -53 -7 -30 -25 -41 -25 -14 0 8 -7 15 -16 15 -13 0 -14 -3 -4 -15 10 -12 9 -16 -4 -21 -9 -3 -16 -14 -16 -23 1 -14 2 -14 14 2 15 20 32 22 42 5 5 -8 2 -9 -9 -5 -12 5 -17 1 -17 -13 0 -11 6 -20 14 -20 11 0 12 -5 3 -24 -7 -14 -14 -20 -18 -15 -3 6 -17 7 -31 4 -19 -5 -24 -12 -21 -26 3 -10 9 -16 14 -13 5 3 9 0 9 -5 0 -6 -7 -11 -15 -11 -8 0 -15 5 -15 11 0 5 -5 7 -10 4 -6 -4 -8 -11 -5 -16 4 -5 1 -9 -4 -9 -18 0 -13 30 6 37 15 6 15 7 -2 13 -14 5 -7 10 28 20 55 15 64 34 11 24 -34 -6 -35 -6 -23 14 18 28 1 46 -31 34 -19 -7 -21 -10 -7 -15 19 -7 23 -42 7 -52 -5 -3 -11 4 -11 17 -1 18 -2 19 -6 5 -3 -13 -11 -17 -23 -14 -10 3 -21 -1 -24 -8 -3 -8 2 -11 12 -9 29 7 46 -10 33 -35 -15 -27 -28 -27 -34 2 -3 14 -5 9 -6 -15 0 -20 -4 -45 -7 -55 -5 -17 -5 -17 6 -1 11 19 57 48 46 30 -3 -6 -1 -12 6 -14 7 -3 9 -11 4 -24 -8 -18 -8 -18 -17 4 -11 30 -23 28 -15 -3 5 -20 3 -23 -11 -18 -13 5 -15 2 -10 -11 4 -10 2 -16 -6 -15 -25 5 -66 -24 -64 -44 1 -11 -4 -22 -11 -24 -8 -3 -10 1 -6 11 5 12 2 15 -11 10 -12 -5 -15 -13 -10 -33 4 -14 11 -29 17 -32 7 -4 6 -9 -2 -14 -14 -9 -26 2 -33 30 -3 11 -5 -1 -4 -27 1 -25 -1 -44 -5 -42 -3 2 -8 -1 -11 -8 -2 -7 -3 -5 -1 5 1 10 -3 16 -9 14 -7 -2 -12 -10 -13 -18 -2 -34 -5 -39 -22 -39 -20 0 -21 3 -25 120 l-3 85 -32 -1 c-18 -1 -32 3 -32 7 0 5 5 9 10 9 6 0 10 7 10 15 0 8 -5 15 -11 15 -6 0 -8 9 -4 21 5 15 4 19 -5 14 -8 -5 -7 0 2 15 11 18 11 23 -6 36 -13 9 -15 14 -6 14 9 0 8 5 -6 16 -10 8 -14 13 -8 10 7 -3 17 0 23 8 9 11 8 15 -5 20 -12 5 -14 13 -9 37 5 22 3 34 -6 40 -12 8 -12 10 0 18 11 7 10 13 -7 31 -11 12 -18 28 -16 35 3 7 -1 29 -10 48 -10 25 -12 45 -6 64 4 15 9 22 9 15 1 -7 6 -10 12 -6 8 4 8 9 0 17 -6 6 -11 24 -11 39 l0 28 -329 0 -328 0 -7 -71 c-4 -39 -11 -82 -16 -94 -5 -12 -13 -57 -19 -100 -6 -42 -14 -82 -18 -89 -4 -6 -6 -19 -5 -28 2 -10 -2 -18 -7 -18 -6 0 -11 -9 -11 -19 0 -11 -8 -22 -18 -25 -41 -13 -147 -14 -236 -1 -112 15 -131 26 -246 133 -73 68 -77 71 -176 97 -117 31 -157 29 -70 -4 76 -28 79 -31 211 -158 134 -131 162 -147 259 -142 83 4 249 0 255 -7 7 -7 -32 -113 -40 -108 -5 2 -13 -4 -18 -15 -6 -10 -23 -22 -38 -26 -25 -6 -26 -8 -10 -17 10 -5 24 -7 32 -4 19 7 26 -20 13 -52 -6 -15 -11 -30 -10 -34 1 -5 -3 -8 -9 -8 -5 0 -8 -4 -5 -9 10 -16 -16 -75 -43 -100 -14 -13 -19 -21 -10 -18 19 6 19 -7 0 -73 -21 -77 -21 -77 -31 -60 -7 11 -10 7 -10 -15 0 -16 -7 -43 -15 -59 -8 -16 -27 -67 -41 -115 -14 -47 -30 -97 -36 -111 -48 -110 -131 -264 -170 -313 -16 -21 -28 -40 -26 -43 6 -6 193 162 253 227 85 93 108 121 190 229 44 58 83 107 87 108 5 2 8 8 8 12 0 13 79 138 123 194 37 47 107 182 107 205 0 6 4 11 8 11 4 0 16 22 26 50 10 27 22 47 27 44 5 -3 9 2 9 10 0 8 12 52 26 98 51 162 68 182 47 56 -7 -46 -14 -90 -14 -98 -1 -18 -28 -178 -40 -240 -5 -25 -11 -65 -15 -90 -3 -25 -10 -50 -15 -56 -5 -6 -6 -14 -2 -17 3 -4 1 -7 -6 -7 -7 0 -11 -6 -8 -14 7 -18 -13 -96 -24 -96 -5 0 -9 5 -9 10 0 6 -4 10 -9 10 -6 0 -4 -12 3 -26 8 -14 12 -34 9 -44 -5 -17 -6 -17 -24 -2 -10 9 -19 21 -19 27 0 5 5 3 10 -5 8 -12 10 -11 10 8 0 20 -3 21 -20 12 -24 -13 -25 -23 -5 -40 8 -7 15 -22 15 -34 0 -17 2 -18 10 -6 8 12 10 9 10 -12 0 -29 -6 -33 -29 -19 -8 5 -11 16 -8 25 4 10 1 16 -8 16 -20 0 -19 -25 1 -45 20 -19 11 -33 -10 -16 -8 7 -20 9 -27 5 -8 -4 -4 -11 12 -20 20 -10 27 -10 41 3 16 15 18 15 18 0 0 -10 -6 -18 -12 -19 -36 -4 -74 -2 -79 5 -3 5 -14 -4 -23 -18 -10 -15 -16 -28 -14 -30 10 -10 42 -8 46 4 3 10 -2 11 -18 6 -15 -5 -20 -4 -16 4 4 6 21 11 37 11 l30 0 -20 -29 c-25 -35 -25 -35 -5 -55 23 -24 1 -19 -24 4 -24 23 -26 19 -22 -41 0 -14 -6 -31 -14 -38 -10 -8 -14 -22 -10 -36 6 -22 -11 -43 -24 -30 -3 3 0 10 7 14 14 9 7 31 -10 31 -6 0 -8 -4 -5 -9 8 -12 -24 -111 -36 -111 -4 0 -8 8 -9 18 -1 25 -17 -27 -17 -58 l0 -25 8 25 c8 23 8 22 7 -7 -1 -36 -11 -42 -25 -18 -5 10 -8 -1 -9 -35 0 -57 -6 -68 -27 -51 -10 8 -16 9 -21 1 -3 -5 -3 -10 2 -10 4 0 1 -5 -7 -11 -12 -8 -10 -9 8 -4 25 7 29 -6 8 -24 -11 -9 -15 -9 -19 1 -3 7 -6 0 -6 -15 -1 -16 -5 -26 -11 -22 -5 3 -10 2 -10 -4 0 -5 4 -12 9 -15 19 -12 3 -41 -25 -47 -16 -4 -22 -7 -13 -8 9 0 19 -12 21 -26 3 -13 2 -22 -3 -19 -4 2 -12 -3 -17 -12 -8 -15 -10 -15 -15 0 -4 9 -11 16 -16 16 -6 0 -8 -7 -5 -15 4 -8 2 -15 -3 -15 -5 0 -9 -9 -9 -21 0 -19 1 -19 13 -3 12 16 13 16 13 1 0 -9 -6 -20 -14 -24 -8 -4 -16 -12 -18 -18 -2 -5 -7 -9 -11 -7 -10 3 -37 -23 -37 -36 0 -6 6 -13 13 -15 6 -3 1 -6 -13 -7 -23 -1 -23 -2 -5 -10 18 -7 16 -10 -17 -24 -26 -11 -38 -23 -38 -36 0 -11 -4 -20 -10 -20 -26 0 -4 -18 60 -49 39 -19 70 -37 70 -40 -1 -3 -11 -19 -24 -35 l-23 -28 -54 15 c-30 8 -81 21 -114 27 -33 6 -77 23 -98 36 -42 28 -96 42 -106 28 -11 -16 -113 -94 -123 -94 -5 0 -3 -6 4 -14 9 -10 17 -11 26 -4 15 13 16 3 1 -25 -26 -48 -105 -112 -138 -112 -8 0 -16 -6 -19 -13 -6 -20 46 -4 95 30 23 15 46 28 51 28 5 0 15 7 22 15 7 8 16 12 21 9 5 -3 6 3 3 13 -5 17 -5 17 9 1 19 -24 27 -23 28 5 l0 22 10 -24 c8 -20 12 -21 25 -10 11 9 18 9 22 2 10 -15 82 -26 82 -12 0 6 7 3 16 -5 15 -16 10 -41 -7 -31 -5 3 -6 -1 -3 -9 4 -11 0 -16 -11 -16 -9 0 -13 -4 -10 -10 9 -15 23 -12 45 10 11 11 20 15 20 9 0 -8 5 -8 15 1 16 14 65 6 65 -11 0 -5 -20 -31 -45 -56 -25 -25 -43 -48 -41 -50 3 -3 50 9 106 27 l101 33 48 -23 c27 -12 54 -19 60 -16 6 4 11 1 11 -7 0 -10 7 -13 20 -10 12 3 20 0 20 -6 0 -7 4 -9 10 -6 6 3 10 1 10 -5 0 -6 11 -26 24 -43 21 -28 38 -103 38 -159 -1 -30 14 -29 38 2 13 17 29 30 36 30 8 0 14 9 14 20 0 17 -3 19 -19 10 -11 -5 -23 -15 -26 -20 -14 -22 -24 -8 -22 33 1 23 -4 68 -12 100 -10 45 -18 60 -36 67 -32 12 -55 48 -55 87 0 34 21 53 59 53 12 0 21 6 21 13 0 6 33 33 73 60 39 26 119 88 177 137 96 83 151 113 136 75 -9 -24 13 -17 41 13 15 15 23 21 19 15 -16 -29 3 -10 29 27 15 22 32 40 38 40 6 0 0 -11 -13 -25 -13 -14 -19 -25 -13 -25 5 0 20 11 32 24 27 29 82 42 109 25 14 -9 24 -9 38 -1 17 10 17 11 2 12 -23 0 -41 33 -26 48 9 9 8 12 -3 12 -8 0 -21 -6 -28 -12 -10 -11 -11 -10 -6 5 5 13 2 17 -14 17 -14 0 -19 5 -15 15 4 8 1 15 -5 15 -6 0 -11 -4 -11 -9 0 -5 -9 -11 -21 -14 -18 -5 -18 -3 5 20 14 14 26 34 26 44 0 9 24 47 53 83 28 36 60 77 70 91 11 15 21 24 24 21 3 -2 -2 -38 -11 -78 -19 -95 -13 -131 33 -187 46 -57 68 -116 51 -136 -9 -11 -9 -15 -1 -15 6 0 16 10 21 23 5 12 9 16 9 9 1 -16 -17 -52 -36 -70 -8 -8 -11 -17 -8 -21 4 -3 11 2 16 12 14 24 32 11 19 -13 -5 -10 -10 -32 -10 -49 0 -16 -5 -33 -11 -37 -7 -4 -9 -21 -6 -40 5 -27 2 -36 -14 -44 -10 -6 -19 -20 -19 -31 0 -15 -5 -19 -15 -15 -11 4 -15 -2 -15 -23 0 -16 6 -32 13 -34 7 -4 6 -6 -4 -6 -19 -1 -37 -40 -44 -91 -4 -34 -61 -157 -90 -195 -13 -16 -19 -18 -35 -7 -12 7 -20 8 -20 2 0 -5 4 -10 9 -10 22 0 18 -34 -9 -77 -17 -26 -30 -52 -30 -57 0 -6 -10 -22 -21 -36 l-20 -25 5 55 c8 82 10 193 3 210 -3 8 -11 36 -18 61 -10 35 -20 50 -43 62 -52 26 -128 46 -206 52 -41 4 -78 9 -82 12 -9 5 -68 -28 -68 -37 0 -14 14 -19 25 -10 7 6 20 7 29 4 13 -5 16 -15 11 -41 -3 -22 -1 -32 5 -28 17 11 70 -51 70 -82 0 -17 8 -33 20 -41 11 -7 20 -16 20 -22 0 -18 -72 -81 -86 -76 -20 8 -17 -4 11 -46 l25 -37 52 55 c35 37 55 51 62 44 5 -5 19 -11 31 -11 16 -1 17 -2 3 -6 -13 -3 -16 -11 -12 -32 7 -33 -10 -71 -31 -71 -26 0 -16 -27 13 -33 15 -4 50 -20 79 -36 l51 -31 -30 -77 c-16 -43 -41 -114 -55 -158 -14 -44 -30 -83 -37 -87 -7 -5 3 -20 27 -42 25 -23 36 -40 31 -48 -49 -83 -200 -233 -289 -288 -22 -13 -49 -32 -59 -42 -11 -10 -23 -18 -27 -18 -5 0 -21 -12 -36 -26 -15 -14 -32 -29 -38 -32 -19 -13 -65 -81 -65 -97 0 -8 -7 -27 -16 -40 -9 -14 -14 -34 -11 -45 3 -11 2 -20 -3 -20 -13 0 -19 -37 -7 -49 7 -7 6 -15 -3 -26 -21 -25 7 -18 48 12 20 15 58 47 84 70 26 24 51 43 56 43 4 0 52 43 106 95 54 52 99 95 100 95 2 0 1 -53 -1 -117 -7 -246 -79 -528 -200 -783 -58 -121 -117 -212 -213 -325 -77 -91 -279 -294 -322 -323 -13 -9 -28 -21 -34 -27 -24 -21 -97 -81 -130 -105 -92 -67 -214 -150 -222 -150 -5 0 -32 36 -60 79 -29 44 -58 86 -64 93 -25 27 -112 186 -151 277 l-28 65 88 86 c100 97 347 305 428 360 13 8 62 42 111 76 49 33 95 63 103 65 7 3 -9 17 -37 32 -28 15 -76 46 -109 70 -81 60 -95 66 -45 19 23 -22 42 -45 42 -50 0 -15 -66 -34 -92 -27 -13 3 -77 33 -143 65 -157 77 -273 115 -600 195 -148 36 -310 77 -360 91 -320 90 -512 151 -520 164 -8 12 5 40 19 40 6 0 56 -18 111 -41 175 -71 319 -112 440 -124 33 -3 71 -8 85 -11 l25 -4 -25 11 c-14 7 -41 13 -60 15 -19 2 -91 18 -160 35 -165 41 -305 92 -473 175 -50 24 -111 50 -137 58 -44 13 -50 13 -78 -4 -49 -30 -140 -148 -181 -235 -58 -122 -118 -344 -123 -452 -1 -28 -7 -44 -17 -48 -13 -5 -14 -7 -1 -15 12 -8 11 -10 -5 -10 -19 -1 -19 -1 -2 -14 17 -13 17 -14 0 -32 -12 -11 -18 -34 -19 -63 -1 -25 -5 -54 -9 -64 -4 -9 -2 -23 4 -30 8 -10 7 -17 -2 -26 -8 -8 -9 -14 -1 -19 6 -4 11 -29 11 -57 1 -111 2 -115 23 -115 15 0 20 7 20 24 0 14 4 27 10 31 5 3 7 12 3 20 -3 8 0 15 5 15 16 0 25 -64 18 -123 -4 -29 -8 -60 -9 -69 -1 -10 -5 -18 -10 -18 -4 0 -5 -5 -2 -10 4 -6 2 -17 -4 -24 -8 -10 -5 -16 14 -26 31 -17 31 -24 0 -38 -32 -15 -38 -15 -30 -2 3 6 1 10 -5 10 -8 0 -10 -9 -6 -23 3 -12 -1 -35 -8 -49 -12 -23 -12 -27 0 -32 8 -3 24 4 35 15 l21 21 -21 -7 c-17 -5 -20 -3 -14 12 11 32 15 34 27 17 9 -12 15 -14 20 -6 4 7 5 16 1 21 -3 6 4 15 15 21 11 6 18 15 15 20 -3 5 -1 11 3 14 14 8 34 -44 23 -58 -23 -28 -51 -89 -51 -110 0 -14 -6 -26 -13 -29 -8 -3 -3 -14 16 -33 15 -16 25 -22 22 -13 -4 10 -1 20 6 25 8 5 10 3 4 -6 -6 -9 -2 -10 16 -5 22 7 23 7 9 -10 -14 -17 -13 -18 8 -13 12 4 20 2 17 -2 -8 -13 45 -66 61 -62 21 4 17 -16 -4 -21 -11 -3 -7 -7 16 -12 22 -5 32 -13 32 -27 0 -12 4 -17 12 -12 8 5 9 2 5 -10 -8 -20 35 -80 48 -68 4 4 4 -7 0 -23 -5 -23 -4 -26 4 -15 9 13 11 12 11 -3 0 -10 -5 -28 -11 -40 -9 -20 -9 -20 4 -4 15 19 37 23 37 7 0 -5 -9 -15 -20 -22 -24 -15 -26 -38 -4 -38 11 0 14 -6 9 -21 -5 -14 -2 -25 6 -30 10 -6 7 -9 -10 -9 -23 0 -23 -1 -7 -19 10 -11 15 -24 12 -30 -3 -5 -2 -20 3 -33 5 -15 6 -30 0 -39 -7 -11 -9 -9 -9 9 0 27 -16 29 -23 2 -5 -21 -27 -28 -27 -9 0 5 -4 7 -10 4 -6 -4 -10 6 -10 22 0 22 -2 25 -10 13 -7 -11 -10 -11 -10 -2 0 10 -5 10 -20 2 -23 -12 -60 -5 -60 12 0 5 7 8 15 4 9 -3 15 0 15 9 0 22 -35 13 -70 -18 -16 -15 -35 -27 -42 -27 -7 0 -1 8 12 17 14 9 27 18 29 19 9 7 -23 35 -35 30 -14 -5 -47 27 -37 37 3 4 1 7 -6 7 -7 0 -9 5 -6 10 4 7 13 7 26 0 10 -6 19 -7 19 -2 0 5 -11 15 -25 22 -14 7 -25 17 -25 22 0 4 -7 8 -15 8 -8 0 -15 6 -15 13 0 8 -4 7 -10 -3 -8 -12 -10 -10 -10 8 0 16 4 21 13 16 7 -4 7 -2 -2 7 -10 11 -15 11 -18 2 -3 -7 -11 -13 -19 -13 -8 0 -11 -6 -7 -17 4 -11 3 -14 -5 -9 -7 4 -12 15 -12 24 0 15 -2 15 -10 2 -8 -12 -10 -11 -10 8 0 12 -4 22 -10 22 -5 0 -7 -8 -4 -17 3 -10 -1 -8 -8 5 -8 12 -18 19 -23 15 -4 -4 -6 -1 -2 8 4 13 1 16 -14 12 -16 -5 -17 -7 -6 -17 8 -6 17 -22 20 -34 3 -13 3 -21 0 -18 -3 3 -12 -2 -19 -12 -10 -14 -15 -15 -25 -4 -11 10 -9 12 7 13 15 1 14 3 -6 9 -39 13 -50 11 -44 -5 4 -9 0 -15 -9 -15 -19 0 -31 -58 -16 -77 9 -10 9 -12 -2 -8 -16 6 -55 -67 -45 -84 4 -6 -2 -19 -13 -30 -20 -20 -33 -18 -25 4 3 7 -2 15 -11 19 -10 3 -14 2 -10 -5 7 -11 -12 -39 -27 -39 -6 0 -7 7 -4 16 4 10 -1 25 -10 35 -15 16 -14 17 7 12 15 -4 20 -3 15 5 -4 7 -1 12 7 12 8 0 20 7 27 15 11 14 10 14 -14 6 -14 -6 -26 -7 -26 -2 0 5 7 12 16 15 10 4 14 12 10 22 -5 12 -2 15 9 10 9 -3 13 -2 10 3 -3 6 -1 28 4 50 5 25 5 41 -1 43 -5 2 -6 11 -2 21 4 13 12 16 28 11 20 -6 20 -6 3 13 -9 11 -14 23 -10 26 3 4 1 7 -5 7 -7 0 -12 5 -12 11 0 5 4 8 9 5 5 -3 12 1 15 10 9 24 7 29 -6 16 -15 -15 -38 -16 -38 -2 0 6 7 10 15 10 8 0 15 4 15 9 0 4 -11 6 -24 4 -30 -6 -30 19 0 43 13 11 15 17 7 20 -20 9 -15 22 10 27 15 3 12 5 -11 6 -20 0 -31 -3 -27 -9 3 -5 1 -10 -4 -10 -6 0 -11 7 -11 15 0 8 -7 15 -15 15 -20 0 -19 10 2 27 17 13 16 14 -5 10 -25 -6 -46 21 -32 42 6 11 9 10 13 -5 4 -16 5 -15 6 4 0 13 5 20 11 17 6 -4 8 -11 5 -16 -4 -5 1 -9 11 -9 13 0 14 3 5 13 -6 8 -8 17 -4 21 4 4 -18 5 -50 3 -31 -2 -59 -1 -63 2 -5 6 -9 7 -35 10 -5 0 -7 6 -4 11 3 6 -1 10 -10 10 -12 0 -15 -5 -11 -16 3 -9 6 -18 6 -20 0 -2 13 -4 29 -4 16 0 31 -6 35 -15 6 -16 -5 -20 -18 -8 -13 13 -56 10 -56 -3 0 -8 11 -12 26 -11 15 1 29 -3 31 -9 3 -8 -6 -10 -28 -5 -20 4 -35 15 -40 29 -6 15 -5 21 1 17 15 -9 12 2 -6 30 -9 14 -12 25 -6 25 6 0 13 8 15 18 4 16 5 16 6 0 1 -24 23 -23 44 2 25 29 36 24 32 -15 -2 -19 1 -35 6 -35 9 0 11 5 13 33 1 6 6 15 11 19 6 4 10 12 10 18 0 6 14 19 30 30 17 11 26 20 22 20 -18 0 -67 -42 -61 -52 4 -6 1 -8 -7 -6 -8 3 -13 11 -11 17 1 7 -2 10 -7 7 -5 -4 -14 6 -20 21 l-11 28 5 -27 c6 -32 -9 -37 -25 -9 -6 12 -17 17 -29 14 -14 -3 -19 0 -18 13 1 10 -6 20 -15 22 -13 2 -18 -3 -18 -17 0 -12 -4 -21 -10 -21 -5 0 -10 -7 -10 -15 0 -19 16 -19 24 0 7 18 27 20 22 3 -1 -7 -1 -10 1 -5 9 14 43 7 43 -9 0 -14 -3 -14 -15 -4 -10 9 -15 9 -15 1 0 -6 -15 -11 -33 -11 -24 0 -35 -6 -42 -22 -6 -12 -17 -23 -25 -26 -13 -3 -13 -2 -1 7 12 8 13 14 3 35 -6 14 -16 26 -22 26 -5 0 -10 5 -10 11 0 5 4 8 9 4 5 -3 12 -1 16 5 3 5 11 10 18 10 6 0 2 -7 -9 -16 -15 -13 -16 -15 -2 -10 12 4 15 1 11 -11 -4 -11 -2 -14 5 -9 18 11 14 54 -5 65 -16 9 -16 12 -3 21 11 8 9 9 -12 4 -27 -6 -27 -6 -25 49 2 50 0 54 -18 50 -11 -3 -38 -7 -60 -8 -38 -3 -40 -1 -42 27 -2 19 3 31 15 35 18 7 32 22 32 37 0 5 -7 2 -16 -5 -23 -19 -88 -48 -94 -42 -3 2 2 10 11 16 34 26 27 60 -13 63 -21 2 -23 -7 -5 -25 10 -11 8 -11 -10 -2 -36 18 -29 41 12 41 21 0 35 5 35 13 0 9 2 9 8 0 6 -10 12 -10 28 1 18 14 18 15 -9 12 -15 -1 -30 -6 -34 -9 -15 -15 -42 -6 -46 16 l-4 22 -2 -22 c-1 -17 -7 -23 -23 -23 -21 0 -21 1 -3 13 10 8 15 19 11 25 -4 7 -2 12 4 12 6 0 10 10 8 23 -2 16 -9 21 -26 19 -19 -2 -22 2 -17 18 8 26 -16 50 -49 50 -14 0 -25 3 -23 8 1 4 -3 8 -8 10 -6 2 -11 -4 -13 -12 -3 -11 4 -16 23 -16 15 0 33 -6 41 -14 18 -19 18 -26 -1 -26 -8 0 -14 3 -12 8 1 4 -3 7 -8 7 -6 0 -9 -3 -8 -7 2 -5 -3 -8 -11 -8 -8 0 -18 9 -21 20 -3 11 -14 20 -23 20 -9 0 -26 8 -37 17 -21 16 -16 16 32 -4 12 -5 15 -2 10 10 -3 9 -2 17 3 17 18 0 10 18 -10 23 -11 3 -20 1 -20 -4 0 -5 -5 -9 -12 -9 -6 0 -3 10 8 23 11 12 20 29 19 37 -1 8 -3 23 -3 32 -1 9 -10 19 -19 21 -17 4 -17 5 0 6 10 0 16 5 13 9 -2 4 4 8 15 8 15 0 19 -5 15 -20 -7 -26 10 -7 18 21 6 19 4 21 -19 17 -15 -3 -25 0 -25 7 0 8 -5 7 -16 -2 -13 -10 -17 -10 -25 2 -13 21 -11 24 16 24 14 0 25 -3 25 -7 0 -17 19 -7 25 12 4 11 10 18 15 15 5 -3 11 -1 15 5 4 6 -4 9 -19 8 -13 -1 -22 -6 -19 -11 2 -4 -8 -5 -24 -1 -34 8 -56 33 -47 54 4 8 6 28 5 45 -2 28 -1 29 15 13 16 -16 16 -18 -1 -44 -17 -26 -17 -28 0 -40 19 -14 35 -10 35 7 0 6 -5 7 -10 4 -6 -3 -10 -2 -10 4 0 5 12 14 28 19 l27 10 -25 1 c-18 1 -21 4 -12 10 11 7 11 9 -2 14 -9 4 -16 13 -16 22 0 8 -7 15 -16 15 -15 0 -16 10 -10 88 4 48 11 148 17 222 24 327 35 393 144 885 55 245 110 472 140 575 9 30 20 73 25 95 16 73 70 269 99 355 16 47 52 157 81 245 142 434 387 1045 419 1045 5 0 27 -35 50 -77 168 -317 302 -509 482 -694 99 -102 222 -206 226 -192 2 6 -16 79 -41 164 -40 137 -74 274 -91 364 -18 93 -45 286 -45 323 l0 43 43 -5 c23 -4 64 -8 90 -11 84 -9 83 -7 90 -157 6 -126 21 -214 52 -303 23 -68 84 -185 96 -185 6 0 8 7 5 15 -36 94 -65 323 -42 337 7 5 15 -7 21 -33 8 -32 10 -5 10 126 0 161 1 167 22 185 18 14 20 19 8 24 -12 4 -12 12 2 53 21 63 28 71 54 55 28 -18 37 -7 15 17 -31 34 -11 44 75 38 43 -4 79 -3 82 1 2 4 2 1 0 -7 -2 -9 3 -12 17 -8 11 3 20 1 20 -5 0 -5 8 -8 17 -6 12 2 23 -8 34 -32 31 -67 69 -165 69 -177 0 -11 30 -33 44 -33 3 0 -7 21 -23 48 -16 26 -34 65 -41 86 -11 36 -11 41 6 56 24 20 46 58 40 68 -2 4 5 7 17 6 31 -2 87 -24 87 -34 0 -5 8 -11 19 -15 15 -4 20 -19 26 -70 6 -60 38 -126 53 -110 3 3 -5 16 -17 29 -26 28 -21 46 13 46 41 0 65 -53 31 -67 -14 -5 -14 -7 0 -23 9 -10 30 -24 46 -30 16 -7 29 -16 29 -21 0 -5 7 -9 15 -9 8 0 15 -7 15 -16 0 -8 4 -13 9 -10 11 7 87 -31 115 -56 11 -10 23 -18 27 -18 4 0 26 -17 49 -38 l43 -38 -24 -42 c-26 -46 -30 -47 -62 -31 -13 7 -5 -6 20 -32 23 -24 44 -41 46 -39 27 31 131 180 138 197 5 13 13 23 19 23 5 0 10 4 10 9 0 11 -43 1 -51 -12 -4 -5 -14 -5 -27 2 -14 8 -21 8 -24 0 -2 -6 -15 -1 -31 11 -15 12 -27 18 -27 13 0 -4 -10 7 -22 25 -12 19 -21 50 -21 72 0 22 -4 37 -8 34 -5 -3 -9 2 -9 11 0 13 7 15 28 11 15 -2 49 -8 77 -11 62 -9 80 -21 112 -81 14 -26 41 -63 60 -83 19 -20 46 -57 59 -83 29 -57 50 -74 41 -32 -4 16 -10 50 -13 77 -8 56 2 60 59 21 67 -45 54 -16 -31 69 -45 45 -82 86 -82 90 0 4 14 7 32 7 45 0 30 9 -25 15 -39 4 -63 16 -146 80 -54 41 -101 75 -104 75 -3 0 -34 17 -68 38 -35 22 -113 63 -174 92 -72 36 -128 71 -163 103 -54 51 -73 55 -25 5 15 -15 23 -28 17 -28 -14 1 -235 68 -241 74 -8 7 100 76 119 76 10 0 18 6 18 13 0 7 12 20 28 29 120 72 442 376 530 500 13 17 8 18 -90 18 l-103 0 -23 -38 c-103 -171 -251 -352 -404 -496 -56 -52 -105 -93 -110 -90 -12 7 -3 142 18 264 19 118 71 310 90 331 8 8 14 19 14 22 0 4 -31 7 -70 7 -80 0 -72 11 -90 -129 -5 -46 -10 -172 -10 -279 0 -189 -1 -194 -20 -189 -13 3 -20 0 -20 -9 0 -12 -16 -13 -92 -8 -51 4 -114 12 -140 19 -29 7 -46 8 -45 2 1 -6 -27 -17 -63 -26 -44 -11 -66 -21 -68 -32 -2 -9 22 -44 52 -76 31 -33 53 -63 50 -66 -3 -3 -48 16 -100 44 -52 27 -103 49 -114 49 -25 0 -25 2 1 81 41 127 135 305 230 434 16 22 45 63 65 92 19 28 41 57 49 63 8 7 15 16 15 21 0 5 -542 9 -1255 9 l-1255 0 0 -3680z m5540 2318 c0 -10 -6 -18 -12 -19 -7 0 -3 -4 10 -10 22 -8 22 -10 7 -25 -9 -9 -13 -19 -10 -22 3 -4 11 0 16 8 8 11 10 8 6 -12 -2 -16 0 -28 6 -28 6 0 2 -9 -8 -20 -16 -18 -16 -20 -2 -20 24 0 23 -56 0 -64 -15 -6 -14 -9 7 -19 13 -7 25 -19 27 -27 3 -10 -1 -8 -11 4 -17 22 -21 21 -30 -10 -5 -18 -3 -21 16 -19 18 2 23 -2 23 -20 0 -14 -5 -21 -12 -18 -7 3 -10 9 -7 14 3 5 0 9 -5 9 -16 0 -13 -16 4 -30 12 -10 13 -16 3 -27 -9 -11 -9 -16 3 -24 12 -7 12 -9 -1 -10 -10 0 -8 -3 5 -9 11 -5 14 -9 8 -9 -7 -1 -13 -8 -13 -16 0 -8 -5 -15 -11 -15 -6 0 -9 7 -5 15 4 10 -1 15 -16 15 -17 0 -19 -3 -10 -12 7 -7 12 -16 12 -20 0 -11 -23 -6 -33 7 -5 6 -6 -10 -3 -35 4 -32 3 -39 -3 -25 -5 11 -10 33 -10 49 -1 16 -4 26 -8 23 -10 -11 -11 -51 0 -58 5 -4 5 -9 -2 -13 -7 -5 -14 4 -18 24 -4 25 -10 31 -24 27 -11 -3 -19 -1 -19 5 0 5 -5 6 -11 3 -6 -4 -8 -13 -5 -21 3 -8 1 -14 -4 -14 -6 0 -10 -8 -10 -17 0 -15 2 -16 10 -3 9 13 11 13 20 0 5 -8 10 -23 10 -33 0 -10 10 -22 23 -27 13 -5 16 -9 7 -10 -11 -1 -9 -4 5 -11 18 -8 17 -8 -5 -6 -14 1 -24 7 -23 14 2 10 -7 18 -62 57 -17 12 -20 28 -23 111 -6 139 2 179 44 220 19 19 34 41 34 49 0 8 6 19 14 23 7 4 28 39 46 77 23 49 35 65 41 55 5 -8 9 -22 9 -31z m-230 -1700 c22 -18 40 -38 40 -44 0 -6 -23 -26 -50 -45 -30 -20 -62 -53 -77 -79 -44 -76 -89 -124 -142 -154 l-51 -27 -40 18 c-46 21 -60 43 -27 43 66 0 205 129 261 243 21 42 40 77 43 77 2 0 22 -15 43 -32z m666 -635 c-4 -16 -7 -52 -7 -80 -1 -29 -6 -53 -10 -53 -5 0 -9 5 -9 12 0 6 -3 8 -7 5 -3 -4 1 -15 10 -25 10 -10 14 -22 10 -25 -3 -4 -7 -24 -8 -45 -4 -96 -16 -261 -21 -301 -10 -74 -14 -123 -19 -216 -3 -49 -7 -96 -10 -105 -8 -27 -17 -94 -16 -130 1 -19 1 -50 1 -69 0 -28 -38 -113 -59 -131 -3 -3 -19 -24 -34 -46 -15 -23 -39 -52 -52 -64 -14 -13 -25 -32 -25 -43 0 -16 -3 -17 -15 -7 -15 12 -20 4 -16 -22 0 -5 -3 -8 -9 -8 -5 0 -8 14 -7 30 4 30 17 55 17 31 0 -7 5 -9 11 -6 7 5 5 13 -6 25 -17 18 -16 87 2 99 5 3 9 38 10 76 0 63 2 70 19 67 15 -2 16 -1 5 7 -12 8 -13 20 -3 74 7 35 12 78 12 94 0 16 4 33 10 39 5 5 12 43 15 84 3 41 10 79 15 85 6 7 12 30 15 51 5 53 21 135 40 219 9 39 19 81 22 95 3 14 9 30 13 35 5 6 12 28 16 50 4 22 13 49 20 60 8 11 14 27 14 37 0 10 7 18 16 18 13 0 14 8 8 47 -6 41 -5 45 11 39 13 -4 16 -2 11 9 -3 8 -1 15 5 15 6 0 8 -11 5 -27z m-2837 -1686 c6 -6 11 -19 11 -29 0 -10 5 -18 10 -18 6 0 10 -4 10 -9 0 -5 5 -22 12 -38 6 -15 12 -32 13 -38 2 -5 18 -44 38 -85 19 -41 40 -92 46 -112 7 -21 17 -38 22 -38 5 0 9 -7 9 -16 0 -24 32 -74 48 -74 7 0 11 4 8 9 -4 5 3 7 15 4 11 -3 16 -9 10 -12 -6 -4 2 -19 19 -38 17 -18 30 -43 30 -57 0 -13 5 -37 10 -53 10 -27 9 -27 -6 -8 -15 19 -15 19 -8 -10 10 -40 66 -157 84 -175 13 -13 33 -61 27 -66 -3 -3 -11 5 -18 18 -6 12 -15 25 -19 28 -4 3 -18 23 -32 45 -42 65 -63 86 -76 73 -8 -8 -15 -8 -27 2 -13 11 -14 10 -9 -4 3 -9 10 -16 15 -16 5 0 9 -5 9 -11 0 -6 -9 -8 -21 -4 -19 6 -20 4 -16 -39 2 -29 0 -45 -6 -43 -6 2 -11 12 -12 23 -2 23 -34 64 -51 64 -6 0 -17 11 -24 25 -15 28 -30 33 -30 10 0 -21 -17 -19 -30 5 -6 11 -16 17 -25 14 -12 -5 -15 4 -15 45 0 46 -2 51 -22 50 -13 0 -17 -3 -10 -6 21 -8 13 -32 -10 -31 -29 2 -58 26 -52 43 3 7 1 16 -5 20 -6 3 -11 0 -11 -7 0 -10 -3 -9 -10 2 -6 9 -5 17 3 22 6 4 0 9 -16 13 -36 9 -56 33 -36 46 8 5 9 9 3 9 -15 0 -54 35 -54 49 0 6 -4 11 -9 11 -4 0 -7 11 -6 25 2 18 -2 25 -13 25 -28 1 -55 27 -50 48 4 15 1 18 -14 14 -14 -3 -22 3 -31 27 -15 41 -38 34 -92 -27 -66 -76 -85 -95 -85 -88 0 16 31 65 79 125 28 35 51 68 51 73 0 13 -38 -9 -90 -52 -25 -21 -55 -43 -68 -50 -21 -10 -23 -10 -13 7 5 10 30 34 55 53 25 19 45 41 46 48 0 6 6 12 13 12 6 0 4 5 -5 11 -10 5 -18 19 -18 29 0 10 -4 22 -10 25 -5 3 -10 15 -10 26 0 11 -4 17 -10 14 -5 -3 -10 0 -11 7 0 7 -2 23 -3 36 -2 12 2 22 8 22 16 0 96 -41 96 -50 0 -15 43 -19 57 -5 8 8 34 50 59 92 24 43 44 70 44 61 0 -9 -4 -20 -10 -23 -5 -3 -10 -15 -10 -25 0 -21 -58 -148 -71 -156 -5 -3 -9 -11 -9 -18 0 -15 33 -14 52 1 35 29 120 33 167 8 36 -18 109 -89 121 -117 12 -27 32 -61 41 -68 4 -3 24 -44 45 -91 22 -47 47 -96 56 -110 16 -22 17 -23 17 -4 1 11 -5 29 -12 40 -7 11 -19 36 -26 55 -20 53 -45 105 -53 108 -5 2 -8 12 -8 22 0 10 -7 26 -16 34 -12 12 -12 16 -2 16 8 0 9 3 2 8 -11 8 -75 180 -79 215 -2 12 -12 59 -24 104 -30 118 -25 125 8 10 16 -54 34 -104 40 -110z m2087 20 c-1 -13 -6 -28 -10 -35 -4 -7 -1 -14 7 -18 16 -6 18 -36 3 -46 -8 -5 -7 -8 2 -8 6 0 12 -11 12 -24 0 -14 7 -32 16 -40 8 -9 11 -16 5 -16 -6 0 -11 -6 -11 -14 0 -8 -8 -17 -17 -19 -10 -3 -5 -5 12 -6 17 -1 25 -5 18 -9 -12 -7 -16 -82 -4 -82 4 0 7 -16 8 -35 0 -20 -4 -35 -11 -35 -8 0 -7 -3 1 -8 22 -14 8 -47 -20 -50 -31 -4 -36 -22 -8 -29 12 -3 17 -11 14 -20 -3 -8 0 -19 7 -23 11 -7 11 -11 1 -24 -8 -9 -10 -16 -7 -16 4 0 2 -9 -4 -21 -10 -17 -14 -18 -28 -7 -13 11 -15 11 -9 -4 3 -10 2 -28 -3 -40 -7 -19 -9 -14 -9 25 -1 47 -1 47 27 42 22 -5 24 -4 10 5 -10 6 -18 18 -18 26 0 8 -5 12 -10 9 -6 -4 -19 -4 -28 0 -14 7 -13 9 8 15 25 8 25 8 2 9 -14 1 -21 5 -16 12 3 6 15 9 25 6 11 -3 17 -1 13 4 -3 5 -12 9 -20 9 -11 0 -13 6 -9 21 6 18 4 20 -17 14 l-23 -7 25 22 c23 20 24 22 7 32 -14 8 -16 13 -6 24 9 10 9 17 0 28 -6 7 -8 21 -5 31 4 10 1 20 -6 25 -11 7 -11 11 -1 24 9 11 10 16 2 16 -6 0 -11 4 -11 10 0 5 6 7 14 4 11 -4 13 6 10 52 -3 39 0 60 9 66 9 6 9 8 0 8 -7 0 -13 5 -13 10 0 6 6 10 14 10 17 0 31 18 21 28 -3 3 -10 0 -15 -7 -7 -12 -11 -11 -25 2 -15 16 -14 18 12 28 26 10 26 12 8 19 -17 6 -16 8 10 18 42 15 44 15 41 -11z m1885 -89 c8 -122 44 -252 105 -386 19 -40 32 -77 29 -82 -3 -5 -19 -4 -35 1 -62 22 -99 -6 -162 -121 -14 -25 -35 -61 -46 -80 -12 -19 -26 -45 -32 -58 -40 -92 -137 -170 -232 -187 -51 -10 -69 -32 -42 -53 29 -24 80 -93 88 -119 4 -13 12 -23 18 -23 5 0 8 -6 5 -13 -3 -7 4 -19 14 -26 11 -6 17 -16 14 -21 -3 -6 -2 -10 4 -10 6 0 7 -7 4 -17 -4 -10 -2 -14 4 -10 12 8 36 -40 27 -55 -4 -6 -2 -8 4 -4 6 3 14 1 18 -5 3 -6 0 -15 -7 -20 -11 -7 -10 -9 5 -9 12 0 16 -5 12 -15 -3 -8 0 -15 7 -15 7 0 22 -15 34 -32 17 -24 19 -34 10 -40 -6 -4 -8 -8 -3 -8 6 0 1 -7 -10 -16 -18 -14 -18 -15 4 -4 18 9 23 8 29 -6 6 -16 7 -16 15 2 7 16 8 15 4 -5 -4 -17 2 -31 17 -45 13 -12 21 -30 19 -41 l-4 -20 16 20 c15 20 15 20 16 -1 0 -14 -8 -24 -22 -29 -20 -6 -20 -8 -5 -12 9 -2 17 -10 17 -16 0 -7 4 -6 10 3 5 8 10 12 10 7 0 -25 -24 -42 -56 -39 -19 2 -34 8 -34 13 0 5 14 6 30 2 19 -3 30 -1 30 5 0 6 -7 9 -15 6 -11 -5 -15 1 -15 19 0 26 -15 45 -22 28 -4 -12 -48 -24 -48 -13 0 5 9 12 19 15 13 3 19 13 18 30 -2 25 -11 28 -36 13 -10 -7 -12 -4 -7 12 4 13 0 31 -10 46 -9 14 -14 32 -11 40 5 11 0 13 -24 6 -17 -5 -31 -5 -35 1 -3 5 -10 7 -15 4 -12 -8 -11 6 1 25 8 12 12 13 19 2 7 -11 9 -10 14 3 4 9 3 13 -3 10 -6 -3 -10 3 -10 14 0 14 -5 19 -15 15 -11 -5 -15 1 -15 25 0 27 -2 30 -14 19 -8 -8 -10 -15 -4 -19 5 -4 8 -17 5 -30 -4 -23 -4 -22 -16 9 -7 17 -17 32 -22 32 -5 0 -9 5 -9 11 0 6 -20 44 -45 83 -25 40 -45 76 -45 81 0 4 -13 30 -30 57 -16 26 -30 55 -30 63 0 8 -9 19 -19 25 -26 13 -34 13 -25 -2 4 -6 6 -34 5 -62 -2 -48 -15 -71 -34 -59 -4 3 -38 7 -75 8 -124 7 -186 15 -194 27 -5 9 -9 7 -14 -5 -8 -23 13 -47 42 -47 12 0 29 -6 36 -12 7 -7 29 -22 48 -32 40 -22 77 -59 86 -88 3 -11 15 -29 26 -40 17 -17 18 -22 6 -29 -20 -11 -65 1 -46 12 10 7 9 9 -4 9 -10 0 -18 -4 -18 -10 0 -10 41 -35 53 -32 4 1 7 -3 7 -9 0 -6 -9 -8 -20 -4 -14 4 -20 2 -20 -9 0 -8 -5 -18 -12 -22 -7 -4 -8 -3 -4 4 4 7 3 12 -3 12 -5 0 -11 6 -14 12 -2 7 -2 0 1 -17 4 -26 3 -28 -12 -16 -11 10 -16 10 -16 2 0 -7 -5 -9 -11 -6 -6 4 -8 14 -4 24 4 10 3 13 -4 6 -5 -5 -7 -23 -4 -38 4 -22 8 -25 15 -15 8 10 9 10 5 -2 -2 -9 -13 -14 -25 -12 -16 2 -19 -1 -15 -18 3 -11 0 -20 -6 -20 -6 0 -8 7 -4 17 4 11 3 14 -6 9 -8 -6 -10 -1 -6 17 5 17 2 26 -9 30 -9 4 -16 2 -16 -3 0 -6 5 -10 10 -10 7 0 7 -7 0 -20 -8 -15 -17 -19 -32 -14 -14 4 -18 3 -13 -6 4 -6 17 -9 29 -6 17 4 22 1 23 -15 1 -14 -2 -18 -10 -12 -11 8 -19 9 -53 5 -17 -3 -25 -45 -11 -55 8 -6 7 -7 -5 -4 -9 3 -18 1 -20 -5 -5 -13 -28 -2 -28 13 0 6 4 8 9 5 9 -6 35 44 27 52 -3 3 -10 -6 -15 -19 -7 -17 -10 -19 -10 -6 -1 20 -21 24 -21 3 0 -8 -7 -17 -16 -20 -23 -9 -34 -7 -34 4 0 6 9 10 20 10 12 0 20 7 20 16 0 15 -2 15 -24 0 -28 -18 -43 -7 -30 22 4 9 6 25 5 34 -4 31 81 325 118 413 5 11 24 60 42 110 58 161 141 268 399 521 158 155 399 374 412 374 4 0 8 -6 9 -12z m-1022 -719 c-11 -7 -11 -9 -1 -9 7 0 11 -3 8 -8 -2 -4 -7 -70 -10 -146 -4 -76 -9 -142 -11 -146 -3 -4 -6 -83 -7 -176 -2 -101 -7 -172 -13 -176 -6 -5 -5 -8 3 -8 6 0 12 -7 12 -15 0 -21 -28 -19 -32 3 -3 12 -6 10 -9 -9 -5 -21 -2 -25 12 -22 21 6 36 -16 18 -28 -11 -6 -10 -11 3 -26 8 -10 13 -24 11 -30 -8 -23 13 -13 27 12 7 14 17 25 22 25 13 0 9 -28 -4 -33 -10 -4 -10 -7 0 -18 6 -7 12 -20 12 -29 -1 -12 -3 -12 -14 3 -9 12 -16 14 -21 7 -3 -5 -11 -8 -16 -5 -5 4 -9 -1 -9 -9 0 -18 16 -30 23 -16 3 6 4 5 3 -2 -2 -7 4 -19 13 -26 9 -8 0 -5 -20 7 -37 21 -74 19 -83 -5 -3 -7 -12 -11 -20 -8 -12 5 -15 19 -11 67 l5 62 -13 -55 c-9 -43 -16 -54 -29 -52 -13 2 -16 -2 -12 -15 5 -15 4 -16 -5 -3 -16 23 -13 33 9 27 26 -7 26 5 -1 21 -15 9 -18 19 -13 35 4 12 12 25 18 29 6 4 -1 8 -16 8 -15 0 -30 5 -34 12 -10 15 -35 -19 -27 -38 3 -8 0 -14 -7 -14 -6 0 -9 -4 -6 -9 3 -5 -1 -26 -8 -47 -11 -30 -15 -34 -15 -16 -1 24 -24 55 -34 45 -3 -3 0 -12 8 -20 8 -8 15 -19 15 -25 0 -6 -9 -1 -20 12 -20 23 -27 60 -12 60 5 0 17 -7 28 -15 28 -21 38 -18 22 7 -14 23 -13 58 2 58 4 0 10 7 14 15 3 9 0 15 -9 15 -7 0 -16 -13 -20 -30 -8 -38 -25 -49 -25 -16 0 13 5 26 12 28 9 3 9 6 0 12 -7 4 -14 -3 -18 -19 -7 -27 -24 -34 -24 -10 0 20 -13 19 -34 -4 -13 -15 -14 -20 -4 -24 8 -4 7 -6 -4 -6 -10 -1 -18 -6 -18 -12 0 -5 -4 -8 -9 -5 -5 4 -11 0 -14 -6 -4 -10 -7 -11 -18 -1 -11 11 -11 13 0 13 11 0 11 3 1 15 -15 18 1 20 18 3 6 -6 15 -8 19 -4 4 4 1 11 -6 16 -12 7 -12 9 0 12 8 3 1 3 -15 0 -22 -3 -28 -1 -24 9 4 9 -3 15 -19 15 -22 2 -23 1 -6 -12 17 -13 17 -13 1 -14 -10 0 -18 -3 -18 -6 0 -4 8 -13 18 -20 9 -7 12 -14 6 -14 -20 0 -36 29 -32 59 3 20 0 27 -8 24 -15 -6 -24 -49 -12 -61 6 -6 6 -12 -1 -16 -6 -4 -11 -3 -11 3 0 6 -7 8 -16 4 -9 -3 -19 0 -24 6 -5 9 -11 8 -24 -4 -9 -10 -19 -15 -22 -12 -9 9 6 27 22 27 8 0 14 5 14 11 0 6 9 8 20 4 22 -7 23 -5 14 19 -8 20 -34 21 -34 2 0 -17 -60 -30 -74 -16 -7 7 -3 10 12 10 12 0 22 4 22 10 0 5 -12 9 -26 8 -23 -2 -25 -6 -22 -35 2 -17 1 -30 -3 -27 -9 5 -20 -22 -12 -30 4 -3 12 3 20 14 19 27 31 25 29 -5 0 -16 -6 -23 -13 -20 -7 2 -13 0 -13 -5 0 -17 -28 -11 -35 8 -6 15 -8 14 -21 -8 -9 -14 -13 -17 -10 -7 3 10 6 25 6 33 0 8 6 11 15 8 9 -4 15 0 15 10 0 9 -7 16 -15 16 -9 0 -15 10 -15 26 0 14 -4 23 -10 19 -5 -3 -10 -1 -10 4 0 6 2 11 4 11 2 0 12 3 22 7 12 4 15 3 10 -5 -4 -7 -1 -12 8 -12 9 0 16 9 16 20 0 26 -20 25 -53 0 -16 -13 -28 -16 -32 -10 -3 5 -1 10 6 10 7 0 10 2 7 5 -12 13 -37 -9 -44 -38 -3 -18 -13 -40 -22 -50 -8 -9 -12 -20 -9 -24 4 -3 7 -1 7 5 0 7 7 12 15 12 8 0 15 -4 15 -10 0 -5 -4 -10 -8 -10 -5 0 -19 -10 -31 -21 l-23 -22 7 22 c5 15 2 21 -9 21 -9 0 -15 6 -13 13 1 6 -6 11 -15 9 -10 -2 -18 2 -18 8 0 6 -4 8 -10 5 -5 -3 -10 -2 -10 4 0 19 19 21 29 4 10 -19 14 -14 24 32 3 11 5 3 6 -17 0 -20 6 -40 11 -43 6 -3 10 -4 10 -1 0 3 9 27 19 55 18 44 18 51 5 67 -14 18 -14 17 -4 -4 10 -21 9 -23 -7 -20 -12 2 -18 12 -18 32 -1 27 -30 60 -45 51 -12 -7 -19 -45 -9 -45 5 0 9 7 9 15 0 8 6 15 14 15 9 0 14 -12 14 -36 0 -29 -3 -35 -18 -31 -9 2 -24 1 -33 -4 -10 -6 -17 -4 -21 6 -3 8 -10 15 -17 15 -6 0 -9 -7 -6 -15 4 -8 -5 -23 -20 -35 -29 -23 -51 -27 -34 -7 6 8 9 16 6 19 -3 3 2 21 10 41 17 42 20 77 5 77 -5 0 -9 -8 -8 -17 2 -25 -22 -83 -34 -83 -6 0 -5 6 2 15 7 8 9 22 5 32 -6 15 -9 13 -16 -12 -7 -22 -5 -33 5 -41 12 -8 12 -12 -3 -21 -16 -10 -18 -7 -19 19 -1 30 -15 48 -39 48 -7 0 -10 -7 -6 -16 4 -10 -1 -17 -15 -20 -16 -5 -19 -13 -17 -40 2 -18 6 -39 10 -46 3 -7 -2 -3 -11 10 -9 12 -21 22 -26 22 -10 0 -38 25 -38 33 0 3 7 7 14 10 9 4 13 1 10 -6 -2 -7 5 -18 16 -25 22 -13 27 -3 8 16 -9 9 -10 15 -2 20 14 9 29 66 14 57 -5 -3 -10 -2 -10 3 0 6 7 12 15 16 8 3 15 2 15 -3 0 -5 8 -11 18 -15 9 -3 22 -9 29 -12 15 -7 5 67 -11 79 -6 5 4 6 24 3 l35 -5 -26 14 c-15 8 -29 21 -33 30 -9 25 70 21 84 -4 14 -27 13 -34 -6 -27 -10 4 -14 1 -12 -6 7 -21 29 -21 35 1 3 11 9 18 14 15 5 -3 9 -1 9 5 0 5 -3 11 -7 14 -5 2 -2 2 5 1 6 -2 12 0 12 5 0 4 7 8 15 8 9 0 15 -10 15 -24 0 -16 6 -23 20 -23 11 0 20 5 20 11 0 6 -7 9 -15 5 -10 -4 -15 1 -15 14 0 21 -3 20 117 24 24 0 43 4 43 8 0 4 16 10 37 14 20 4 48 13 62 20 14 8 33 14 41 14 37 0 170 60 203 91 12 10 24 19 29 19 10 0 122 90 126 101 2 5 10 9 18 9 8 0 14 6 14 13 0 6 36 50 80 97 44 47 82 93 85 103 4 9 10 17 14 17 4 0 14 12 21 28 8 18 14 22 18 13 2 -7 -2 -17 -9 -22z m1176 -94 c17 -2 40 -4 52 -4 l23 -1 -4 -202 c-5 -268 -4 -250 -18 -242 -10 5 -10 4 -1 -6 9 -10 10 -17 2 -27 -7 -8 -8 -13 -1 -13 9 0 13 -21 14 -79 0 -13 -6 -27 -14 -32 -10 -7 -8 -9 6 -9 14 0 16 -3 7 -13 -6 -8 -9 -34 -6 -60 3 -28 1 -47 -5 -47 -6 0 -10 -7 -10 -15 0 -8 4 -15 9 -15 4 0 8 -22 7 -50 -1 -46 -3 -50 -25 -50 -24 0 -24 0 -5 15 19 14 19 14 -1 15 -11 1 -15 4 -8 6 7 3 9 12 6 20 -3 8 1 14 11 14 9 0 16 4 16 10 0 11 -31 1 -43 -14 -5 -6 -6 1 -3 17 8 33 -1 36 -13 5 -17 -46 -21 -78 -11 -78 5 0 10 10 10 22 0 12 3 19 6 16 3 -3 2 -22 -2 -42 -5 -30 -9 -34 -20 -25 -11 9 -14 7 -14 -9 0 -16 -4 -20 -17 -15 -12 5 -15 2 -10 -10 5 -14 3 -15 -20 -4 l-26 11 32 8 c36 10 37 13 11 53 -13 20 -20 24 -20 13 0 -9 6 -18 13 -21 7 -2 8 -8 3 -13 -5 -5 -11 -3 -14 5 -3 8 -16 25 -28 38 -13 13 -24 27 -24 31 0 5 -5 13 -12 20 -8 8 -16 6 -30 -10 -19 -23 -24 -18 -9 10 16 29 24 56 22 71 -1 8 3 10 11 6 7 -3 6 -1 -3 7 -9 7 -14 19 -11 26 2 7 -4 16 -15 18 -11 3 -28 25 -38 49 -11 24 -23 41 -27 39 -5 -3 -8 8 -8 25 0 16 -4 32 -9 36 -5 3 -13 20 -17 38 -3 17 -11 43 -17 57 -6 14 -11 28 -12 33 -2 4 -4 9 -5 12 -3 5 -3 6 -15 50 -4 17 -11 35 -15 40 -5 6 -13 37 -19 70 -6 32 -16 64 -21 69 -21 21 -9 57 33 100 l42 44 140 -5 c77 -3 154 -6 170 -8z m-2384 -445 c0 -11 2 -11 6 -2 4 9 8 10 18 2 7 -6 17 -10 21 -8 16 4 52 -25 47 -39 -3 -8 2 -13 15 -13 11 0 22 -8 25 -20 5 -20 -7 -28 -18 -10 -7 11 -110 8 -122 -3 -4 -5 0 -5 10 -1 23 9 22 -3 -2 -16 -11 -5 -22 -6 -25 -1 -10 16 29 46 63 49 19 1 37 5 40 8 9 8 -24 33 -48 36 -34 4 -38 -20 -4 -25 16 -3 10 -4 -14 -3 -35 1 -43 -2 -43 -16 0 -22 -18 -24 -26 -3 -9 22 -27 18 -21 -5 3 -11 2 -18 -2 -15 -5 2 -18 -7 -29 -20 -12 -14 -27 -25 -34 -25 -9 0 -9 -3 0 -12 14 -14 16 -28 3 -28 -11 0 -20 35 -12 47 3 5 14 12 24 16 16 6 26 40 10 35 -5 -2 -9 1 -10 7 -2 5 5 10 15 10 11 0 16 6 14 20 -5 28 -12 32 -22 15 -6 -9 -10 -10 -10 -3 0 6 4 14 8 17 15 9 52 -6 52 -20 0 -12 4 -12 20 -2 11 7 20 19 20 27 0 12 -3 12 -12 3 -16 -16 -25 -15 -32 3 -4 13 2 15 34 13 27 -2 40 -8 41 -18z"/>
<path d="M2903 1843 c-20 -10 -33 -24 -33 -35 0 -11 4 -16 10 -13 6 3 7 -1 4 -9 -4 -10 -1 -16 10 -16 10 0 13 -6 9 -15 -3 -9 -1 -15 4 -13 10 3 63 -54 63 -66 0 -4 -9 -2 -21 4 -11 7 -23 9 -26 7 -2 -3 5 -8 16 -12 12 -3 21 -11 21 -16 0 -6 9 -7 20 -4 17 5 20 2 21 -27 1 -18 3 -25 6 -15 5 20 23 23 23 5 1 -22 34 -54 63 -62 22 -5 27 -12 25 -29 -2 -12 -7 -25 -13 -29 -6 -4 -2 -8 9 -8 16 0 18 -6 13 -37 -5 -33 -4 -35 6 -15 8 17 8 32 0 52 -6 15 -7 33 -3 40 6 9 10 6 15 -9 4 -13 12 -20 20 -17 8 3 16 -5 19 -20 6 -21 9 -23 27 -11 16 9 19 19 15 46 -3 19 -9 37 -14 40 -4 3 -21 33 -37 66 -15 33 -39 73 -52 88 -12 16 -23 33 -23 39 0 18 -67 78 -104 93 -43 18 -52 18 -93 -2z"/>
</g>
</svg>
