<?xml version="1.0" standalone="no"?>
<!DOCTYPE svg PUBLIC "-//W3C//DTD SVG 20010904//EN" "http://www.w3.org/TR/2001/REC-SVG-20010904/DTD/svg10.dtd">
<svg xmlns="http://www.w3.org/2000/svg" version="1.0" width="1200.000000pt" height="1200.000000pt" viewBox="0 0 1200.000000 1200.000000" preserveAspectRatio="xMidYMid meet">
<metadata>
Created by potrace 1.16, written by Peter Selinger 2001-2019
<meta name="Producer" content="Online-Convert"/></metadata>
<g transform="translate(0.000000,1200.000000) scale(0.100000,-0.100000)" fill="#000000" stroke="none">
<path d="M115 11977 c-4 -13 -7 -162 -8 -333 -2 -298 3 -376 38 -639 l6 -40 -16 34 c-8 19 -13 36 -11 39 3 2 -1 14 -9 26 -8 11 -15 28 -15 37 0 9 -9 37 -20 62 -11 25 -17 53 -13 63 4 10 2 15 -4 11 -5 -3 -21 27 -36 71 l-26 77 0 -573 -1 -573 27 -47 c15 -26 44 -73 65 -105 22 -31 36 -62 32 -69 -4 -7 -3 -8 4 -4 7 4 26 -15 48 -51 21 -32 50 -74 65 -94 21 -26 25 -39 17 -50 -8 -12 -9 -11 -5 2 7 22 -48 77 -57 57 -3 -7 -4 -4 -1 7 2 11 0 27 -5 35 -5 8 -10 11 -10 6 0 -15 -39 31 -50 58 -10 28 -43 29 -48 2 -6 -29 7 -66 23 -66 10 0 15 -11 15 -36 0 -24 -4 -33 -12 -28 -8 5 -9 2 -5 -10 4 -10 7 -21 7 -25 0 -4 16 -16 35 -27 32 -17 48 -44 27 -44 -5 0 -9 -13 -10 -30 -1 -42 -10 -53 -39 -45 -16 4 -22 2 -18 -5 3 -6 -3 -10 -15 -10 -12 0 -19 4 -16 8 2 4 -5 9 -17 9 -20 2 -20 1 -4 -8 9 -6 15 -14 13 -18 -3 -5 6 -6 21 -3 18 3 24 1 19 -7 -9 -14 -5 -14 31 -1 l28 10 -25 -21 c-24 -22 -24 -22 -2 -16 12 3 20 2 17 -3 -3 -4 7 -11 21 -14 15 -4 24 -9 22 -11 -6 -7 -129 30 -166 49 -42 22 -42 2 0 -25 30 -19 25 -20 -17 -3 -13 5 -15 -335 -14 -3027 1 -2952 1 -3032 19 -2966 10 38 20 70 22 72 2 3 4 -71 4 -163 0 -270 15 -1095 20 -1120 2 -13 8 -21 13 -18 25 16 61 -126 61 -238 0 -111 16 -89 34 47 27 208 48 331 57 341 5 5 6 -6 4 -25 -13 -103 -13 -175 0 -199 13 -22 14 -23 15 -5 l1 20 8 -20 c7 -18 9 -16 15 12 4 17 8 51 8 75 0 32 3 38 9 23 4 -11 8 85 8 213 1 198 -1 231 -13 220 -8 -9 -16 -47 -19 -100 -4 -48 -9 -98 -12 -112 -3 -14 -7 -38 -10 -52 -11 -51 -14 -18 -5 46 6 36 12 90 15 120 8 93 15 119 33 130 15 10 15 11 -2 6 -16 -6 -18 -2 -13 24 7 34 26 302 30 425 2 44 4 -120 5 -365 3 -821 -15 -1241 -78 -1850 -27 -252 -67 -558 -80 -596 -5 -17 -10 -39 -10 -50 0 -16 -2 -17 -10 -4 -8 12 -10 11 -10 -7 0 -12 -5 -34 -11 -50 -8 -22 -12 -24 -19 -13 -7 11 -10 6 -10 -19 0 -26 -3 -32 -11 -24 -7 7 -12 61 -13 140 -2 130 -12 173 -41 173 -13 0 -15 -47 -15 -335 l0 -335 1345 0 1345 0 0 49 c0 27 -5 83 -10 123 -6 40 -26 204 -45 363 -19 160 -51 414 -70 565 -20 151 -42 331 -50 400 -8 69 -24 195 -35 280 -11 85 -40 331 -65 545 -25 215 -52 442 -60 505 -8 63 -20 158 -25 210 -20 187 -107 882 -126 1001 -4 22 -5 39 -2 39 2 0 22 -24 43 -53 135 -179 355 -426 566 -632 238 -233 417 -371 674 -519 176 -102 543 -292 775 -401 124 -59 259 -123 300 -142 81 -39 351 -163 413 -190 29 -13 34 -19 22 -25 -22 -13 -18 -28 8 -27 21 0 21 1 2 8 -20 8 -20 8 1 15 12 4 39 -3 70 -17 27 -13 82 -38 121 -57 75 -35 95 -52 29 -25 -21 9 -47 13 -59 10 -17 -5 -19 -4 -7 4 23 15 5 24 -22 10 -20 -11 -22 -11 -10 3 11 14 8 16 -25 21 -21 2 -44 1 -52 -3 -13 -7 -62 6 -90 24 -11 7 -13 5 -8 -7 3 -8 0 -20 -6 -26 -9 -7 -24 2 -55 34 -24 24 -38 45 -32 48 6 3 5 4 -2 2 -7 -1 -39 23 -70 53 -109 106 -58 40 74 -97 539 -555 968 -967 1258 -1206 88 -72 166 -139 374 -321 83 -72 227 -174 246 -174 6 0 10 64 10 188 l0 188 35 72 c34 72 99 166 158 229 17 18 28 35 25 38 -10 11 -33 -6 -57 -40 -13 -20 -26 -33 -29 -30 -10 9 -31 -16 -25 -31 3 -7 -2 -17 -11 -20 -9 -3 -16 -10 -16 -15 0 -5 -12 -28 -26 -51 -15 -23 -39 -72 -53 -108 -25 -63 -26 -70 -21 -230 3 -91 4 -166 3 -168 0 -2 -33 18 -72 44 -44 29 -71 54 -71 65 0 15 52 184 76 244 7 17 6 18 -8 7 -18 -14 -59 -120 -78 -200 l-12 -53 -24 22 c-19 18 -21 25 -13 42 8 15 8 18 -1 12 -9 -6 -9 -2 -1 14 7 11 14 21 17 21 3 0 2 -5 -2 -12 -5 -7 -3 -8 6 -3 10 6 10 10 -3 20 -19 14 -34 85 -18 85 6 0 12 21 12 53 1 28 4 41 6 27 6 -30 23 -51 23 -28 0 9 3 18 7 21 5 2 2 2 -4 1 -9 -2 -13 11 -13 41 0 38 3 45 20 45 17 0 20 7 20 40 0 22 -4 40 -8 40 -5 0 -9 17 -10 37 -1 30 4 43 26 61 15 13 28 19 30 13 2 -6 8 -9 13 -5 5 3 9 1 9 -5 0 -5 -6 -12 -12 -14 -7 -3 -4 -6 7 -6 11 -1 26 8 33 19 9 16 23 20 62 20 43 0 50 3 50 20 0 17 7 20 40 20 39 0 40 1 40 36 0 23 -6 41 -17 49 -15 11 -14 12 12 8 17 -3 27 -2 23 2 -12 13 40 47 61 40 11 -3 22 -2 25 3 3 5 -26 14 -65 20 -58 9 -115 32 -327 135 -141 69 -340 162 -442 207 -102 46 -315 143 -475 217 -419 195 -672 311 -820 377 -71 32 -166 75 -210 95 -44 21 -138 64 -210 97 -264 120 -802 396 -1010 519 -621 366 -1253 1115 -1942 2300 -77 132 -161 281 -188 330 -26 50 -61 113 -77 142 l-29 52 68 -19 c111 -30 337 -78 498 -106 186 -32 389 -63 393 -59 2 1 -19 20 -46 41 -26 22 -48 42 -48 46 1 3 -3 10 -8 15 -5 5 -6 2 -1 -6 5 -9 3 -12 -6 -9 -8 3 -13 16 -12 34 2 23 0 26 -8 14 -9 -12 -10 -11 -6 7 4 20 3 21 -14 12 -19 -10 -19 -11 3 -29 13 -11 18 -19 12 -20 -17 0 -47 37 -35 44 5 4 8 15 6 26 -2 12 0 18 6 15 5 -4 9 -4 9 -2 0 8 -43 80 -73 122 -61 87 -123 185 -180 285 -63 110 -112 186 -135 209 -37 37 14 13 193 -94 187 -111 256 -145 161 -78 -45 32 -176 192 -223 273 -102 175 -234 398 -279 470 -28 47 -64 109 -78 138 -17 32 -31 50 -38 46 -7 -4 -8 -3 -4 5 4 6 -6 34 -23 61 -17 28 -31 56 -31 63 0 7 -3 8 -8 2 -13 -18 -34 -16 -51 3 -9 10 -23 21 -31 25 -9 3 -10 6 -2 6 6 1 12 6 12 12 0 5 -4 8 -9 5 -16 -10 -36 4 -55 39 -10 19 -23 32 -29 28 -6 -4 -8 2 -5 15 4 12 2 20 -2 17 -8 -5 -32 28 -35 45 -3 16 -38 71 -64 99 -16 17 -35 48 -42 68 -9 30 -13 33 -21 19 -5 -9 -14 -14 -19 -10 -6 4 -4 15 5 30 15 22 15 23 -1 17 -10 -4 -22 -11 -26 -17 -5 -6 -6 -2 -2 10 3 13 -1 26 -10 34 -8 7 -15 20 -15 29 -1 12 -5 11 -20 -8 -24 -27 -27 -15 -5 16 13 18 13 26 3 43 -7 11 -18 20 -24 20 -6 0 -18 14 -25 32 l-13 32 -11 -28 c-12 -28 -12 -28 -61 60 -27 48 -48 91 -47 96 2 4 -2 8 -7 8 -6 0 -10 6 -10 14 0 7 -7 19 -15 26 -9 8 -13 21 -10 34 5 15 4 17 -3 8 -12 -18 -24 8 -27 61 -2 21 -11 47 -21 58 -25 28 -30 15 -5 -17 22 -27 27 -44 14 -44 -5 0 -17 19 -28 43 -11 23 -31 62 -46 87 -14 25 -26 48 -27 53 -1 4 -13 29 -27 57 -14 27 -25 56 -25 65 0 8 -4 15 -10 15 -5 0 -10 9 -10 20 0 11 -4 20 -9 20 -5 0 -12 7 -15 16 -9 25 14 5 35 -30 l19 -31 0 28 c0 16 4 26 10 22 13 -8 13 -42 -1 -47 -6 -2 -8 -14 -4 -31 4 -15 12 -24 18 -20 6 3 7 1 3 -5 -4 -7 -2 -20 4 -29 11 -16 11 -16 6 -1 -7 22 12 35 20 14 3 -9 11 -16 16 -16 7 0 6 5 -1 14 -6 8 -13 27 -14 44 -1 16 -6 28 -11 24 -5 -3 -6 2 -3 12 4 10 3 15 -3 11 -6 -3 -10 3 -10 14 0 11 -4 22 -9 26 -5 3 -13 20 -16 38 -4 17 -16 50 -26 71 -11 22 -20 60 -20 85 -1 25 -4 36 -6 23 -6 -31 -23 -17 -23 19 0 16 -5 38 -12 48 -20 33 3 49 62 43 44 -4 50 -2 51 14 0 11 2 29 5 42 3 16 -4 31 -22 47 -15 14 -23 25 -19 25 4 0 2 7 -5 15 -7 8 -17 12 -23 8 -6 -3 -7 -1 -3 5 4 7 2 12 -3 12 -6 0 -11 6 -11 14 0 8 -15 27 -33 42 -17 16 -33 34 -35 39 -2 6 -15 24 -30 40 -57 63 -75 85 -70 85 4 0 57 -60 119 -132 63 -73 116 -135 119 -138 3 -3 29 -32 59 -65 99 -110 456 -469 519 -523 97 -84 73 -44 -33 53 -52 48 -92 92 -88 98 3 5 2 7 -4 4 -6 -4 -21 6 -34 21 -22 25 -22 25 -2 8 27 -23 29 -15 6 22 l-17 27 28 -25 c18 -16 -3 24 -59 110 -135 212 -226 407 -241 521 l-7 49 65 0 c78 0 77 0 238 -154 131 -127 260 -241 260 -232 0 17 -32 66 -39 61 -5 -2 -15 3 -22 13 -13 15 -12 16 4 3 9 -7 17 -9 17 -4 0 5 -29 73 -64 150 -90 199 -89 183 -19 183 32 0 69 -6 82 -13 26 -13 114 -133 212 -289 33 -54 63 -98 66 -98 3 0 -16 38 -41 84 -40 74 -126 276 -126 295 0 10 188 -13 317 -39 57 -12 107 -19 111 -16 3 3 -5 6 -17 6 -12 0 -20 4 -17 9 8 12 222 13 285 1 74 -14 129 -43 192 -103 30 -28 88 -68 129 -89 76 -38 90 -49 29 -24 -94 38 -69 19 61 -48 133 -69 141 -75 99 -71 l-45 5 -10 -60 c-6 -34 -7 -63 -2 -66 14 -9 9 -57 -5 -51 -9 3 -12 -4 -9 -28 5 -45 -30 -122 -62 -137 -21 -9 -29 -8 -44 5 -22 20 -33 22 -26 4 4 -12 -74 -20 -187 -20 -18 0 -32 -9 -43 -28 -10 -16 -26 -29 -37 -29 -11 0 -23 -10 -28 -22 -18 -48 -23 -70 -15 -65 5 3 9 -8 10 -24 1 -15 -3 -26 -7 -23 -19 11 -7 -16 41 -96 63 -104 88 -137 174 -228 81 -86 195 -173 310 -240 l81 -47 -175 -10 c-165 -10 -171 -11 -107 -19 37 -5 197 -6 355 -3 312 6 418 17 635 69 111 26 129 33 137 53 5 13 14 79 20 147 10 113 9 131 -10 223 -12 55 -28 112 -36 127 -20 38 -18 55 4 36 23 -21 164 -108 175 -108 4 0 -22 28 -59 63 -91 84 -137 131 -236 239 -95 105 -93 106 69 37 52 -23 96 -39 98 -37 5 5 -421 287 -550 365 -216 130 -714 389 -927 484 -43 19 -74 35 -70 37 16 5 412 -131 591 -204 270 -110 449 -200 634 -317 43 -27 80 -47 83 -44 7 7 -110 88 -190 133 -50 27 -64 39 -54 46 9 7 7 8 -7 4 -22 -6 -150 55 -173 82 -7 9 -10 11 -6 3 5 -11 3 -13 -10 -8 -10 4 -20 7 -22 7 -3 0 -2 5 2 12 4 6 3 8 -3 5 -5 -3 -66 18 -135 47 -68 30 -203 83 -299 119 -168 63 -206 75 -461 151 -198 59 -317 116 -399 192 -62 56 -123 124 -118 129 3 3 28 -2 55 -10 27 -8 65 -17 84 -20 196 -32 550 -107 545 -115 -2 -4 10 -4 27 -2 23 4 29 2 23 -8 -5 -8 -4 -11 2 -7 16 10 74 -4 66 -16 -3 -6 -1 -7 6 -3 17 11 125 -15 109 -26 -8 -5 3 -6 27 -2 35 6 38 5 27 -8 -10 -12 -10 -18 2 -27 20 -17 76 -32 76 -20 0 5 7 6 18 0 32 -17 67 -29 96 -36 29 -6 58 -28 56 -42 -1 -4 4 -9 12 -11 9 -2 8 0 -2 7 -13 10 -13 11 0 11 15 0 52 -20 38 -20 -10 0 30 -40 40 -40 10 0 62 -56 62 -68 0 -6 15 -27 34 -46 35 -37 66 -47 66 -21 0 8 5 15 10 15 6 0 10 -7 10 -15 0 -8 -5 -15 -11 -15 -6 0 -8 -9 -4 -20 4 -13 2 -20 -7 -20 -8 0 -6 -5 5 -11 13 -8 22 -7 33 1 10 9 14 9 14 1 0 -6 4 -11 10 -11 5 0 6 7 3 17 -5 12 -3 14 8 8 8 -5 -1 8 -18 28 -18 21 -33 42 -33 48 0 6 -5 7 -12 3 -7 -4 -8 -3 -4 4 3 6 -2 16 -14 22 -11 6 -26 23 -34 38 -9 15 -15 21 -16 13 0 -10 -3 -11 -14 -2 -10 8 -16 9 -19 1 -3 -6 -4 -5 -3 2 2 7 12 12 22 10 16 -2 15 1 -6 17 -14 11 -32 26 -40 33 -9 8 -25 14 -35 15 -24 1 -92 26 -102 37 -5 5 3 5 17 2 l25 -7 -25 15 c-30 18 -24 20 19 5 17 -6 31 -17 31 -25 0 -8 5 -14 11 -14 5 0 7 5 3 12 -4 7 12 1 37 -14 25 -15 91 -79 153 -149 110 -125 214 -231 362 -370 45 -41 109 -113 144 -160 69 -94 76 -101 67 -77 -3 9 -39 63 -80 120 -84 116 -250 378 -239 378 4 0 45 -33 91 -73 47 -39 114 -96 150 -126 l66 -53 -55 53 c-65 64 -185 174 -224 207 -15 12 -24 27 -21 32 3 6 -1 7 -9 4 -18 -7 -22 11 -5 21 7 5 4 14 -7 26 -16 17 -16 19 -1 19 10 0 17 4 17 8 0 22 216 74 364 87 44 4 89 11 100 16 16 7 13 8 -14 4 -129 -16 -144 -15 -226 5 -47 12 -115 34 -152 50 -178 74 -278 121 -293 137 -10 10 -40 61 -67 113 -42 81 -48 99 -40 122 8 22 6 32 -11 50 -17 17 -21 18 -21 6 0 -9 5 -18 11 -20 6 -2 10 -12 8 -23 -7 -32 -101 192 -105 249 -2 27 -7 52 -10 55 -4 3 -4 -12 -1 -34 6 -38 5 -39 -7 -16 -8 14 -11 32 -8 40 3 8 1 12 -4 8 -10 -6 -40 60 -36 77 2 5 -2 12 -9 17 -6 4 -12 20 -13 37 0 17 -4 28 -8 26 -10 -6 -50 107 -44 123 3 8 2 12 -3 9 -11 -7 -64 141 -55 156 4 6 3 8 -3 5 -5 -3 -28 55 -52 136 -24 78 -49 160 -57 182 -42 123 -145 558 -179 760 -8 50 -18 104 -21 120 -4 23 -3 26 5 15 6 -8 11 -10 11 -5 -1 6 -7 19 -15 29 -8 11 -14 31 -14 45 1 25 2 25 10 -4 7 -26 8 -25 4 10 -3 22 -5 52 -5 68 l0 27 -350 0 c-192 0 -350 -2 -350 -5 0 -37 173 -579 247 -775 114 -299 323 -726 505 -1027 27 -46 46 -88 42 -94 -4 -7 -3 -9 3 -6 6 4 22 -11 37 -33 30 -46 30 -47 12 -47 -8 0 -12 6 -8 15 4 11 1 13 -8 7 -7 -5 -11 -4 -7 1 7 12 -13 38 -35 47 -11 4 -16 13 -12 24 5 17 5 17 -9 0 -9 -11 -17 -14 -20 -7 -3 6 -4 5 -2 -2 1 -7 8 -12 15 -10 9 2 10 -4 5 -20 -14 -47 -11 -74 18 -125 15 -29 26 -53 24 -53 -37 0 -1342 647 -1352 670 -3 8 -9 44 -12 79 -4 42 -9 58 -13 46 -8 -24 -21 26 -49 195 -11 63 -29 169 -40 235 -27 158 -52 402 -52 493 0 40 -3 71 -7 68 -4 -2 -5 33 -4 77 2 45 1 119 -3 165 l-7 82 -249 0 -249 0 -5 -23z m864 -1684 c288 -153 523 -280 591 -318 41 -24 96 -53 122 -66 26 -12 44 -27 41 -32 -3 -6 -1 -7 5 -3 12 7 33 -2 165 -76 88 -50 115 -75 41 -39 -21 11 -52 23 -69 28 -16 5 -29 15 -27 22 1 7 -3 11 -10 9 -7 -3 -13 -18 -13 -34 0 -27 4 -29 42 -35 54 -7 67 -18 16 -14 -21 1 -29 0 -18 -3 18 -5 18 -6 -5 -13 -19 -7 -16 -8 17 -5 22 2 45 0 50 -5 5 -5 29 -16 54 -24 l44 -14 -45 6 c-25 3 -47 9 -48 14 -2 5 -8 6 -13 3 -6 -3 -65 6 -132 20 -67 14 -263 53 -436 87 -172 33 -321 63 -330 66 -10 4 -12 3 -6 -4 6 -5 33 -15 60 -22 151 -37 151 -37 192 -104 20 -34 56 -82 80 -107 l42 -46 -62 8 c-34 5 -104 14 -156 21 l-93 12 -29 80 c-76 207 -199 601 -199 636 0 17 23 8 129 -48z m2352 -2176 c48 -32 50 -65 5 -115 -20 -22 -36 -43 -36 -48 0 -4 6 1 14 11 12 17 16 18 32 5 17 -14 18 -13 6 1 -10 13 -9 19 3 29 13 11 15 7 14 -26 -1 -65 -15 -134 -31 -150 -8 -9 -31 -19 -51 -24 l-36 -8 4 57 3 56 -15 -57 c-18 -68 4 -62 -273 -83 -208 -16 -320 -19 -320 -9 0 24 100 140 144 168 79 50 81 50 131 1 54 -52 120 -80 167 -71 18 4 51 22 72 40 l40 34 -32 36 c-18 20 -32 47 -32 60 0 47 78 116 131 116 14 0 41 -10 60 -23z"/>
<path d="M2481 11878 c28 -68 58 -141 68 -163 10 -22 39 -89 64 -150 25 -60 61 -145 81 -188 20 -42 36 -80 36 -83 0 -8 319 -643 368 -734 19 -36 67 -121 105 -190 38 -69 103 -184 143 -257 84 -151 89 -160 203 -320 46 -65 127 -179 180 -253 116 -164 380 -496 381 -478 0 3 -20 48 -44 100 -24 51 -53 116 -64 143 -11 28 -32 76 -46 108 -18 41 -23 64 -17 76 7 12 4 27 -11 49 -11 18 -23 31 -25 28 -6 -5 17 -49 30 -57 5 -4 6 -9 0 -12 -5 -3 -19 13 -30 37 -34 69 0 54 54 -23 38 -54 111 -146 155 -196 6 -6 23 5 46 31 92 102 210 179 338 219 86 28 142 33 87 9 -35 -15 -45 -27 -15 -18 56 18 72 28 62 34 -14 9 49 15 365 35 127 9 256 19 288 24 62 8 104 -7 93 -36 -3 -8 -2 -12 3 -8 5 3 44 -19 85 -49 120 -86 246 -150 262 -133 3 3 -18 13 -46 22 -55 18 -200 111 -269 172 l-45 40 49 1 c61 3 241 28 315 45 33 8 118 13 210 12 85 0 158 3 161 8 3 4 35 9 72 10 39 1 61 5 54 10 -7 5 -4 6 8 2 44 -16 52 -16 64 -1 16 18 1 22 -17 4 -6 -6 -15 -9 -19 -5 -10 11 2 18 33 20 24 2 29 -2 27 -18 -1 -11 0 -15 3 -8 3 8 18 10 37 7 27 -4 29 -3 12 6 -17 9 -16 9 8 5 21 -4 27 -2 22 7 -4 7 -1 6 7 -3 7 -9 19 -14 27 -11 12 4 12 3 0 -11 -8 -9 -18 -12 -23 -7 -5 5 -17 5 -28 -1 -10 -5 -23 -7 -28 -4 -6 3 -10 1 -10 -4 0 -14 16 -14 41 -1 11 6 19 7 19 1 0 -5 -7 -12 -16 -15 -8 -3 -12 -10 -9 -16 4 -6 18 -4 38 7 24 12 29 13 21 2 -6 -8 -51 -70 -99 -139 -81 -114 -177 -238 -272 -348 -20 -23 -29 -40 -20 -36 32 12 304 356 399 504 19 30 46 64 59 76 39 33 100 65 112 58 7 -4 9 -4 5 1 -4 4 0 14 10 21 23 18 35 17 28 -2 -3 -9 -2 -12 5 -9 5 4 8 12 6 18 -6 18 168 140 199 140 8 0 14 3 14 7 0 12 80 51 92 44 6 -4 8 -3 5 3 -4 6 21 25 56 43 34 19 121 70 194 115 72 46 129 77 127 70 -3 -7 0 -16 6 -20 6 -4 9 -1 8 7 -4 16 -3 16 100 -21 46 -16 77 -31 70 -34 -7 -2 -10 -8 -5 -12 4 -5 13 -3 19 3 7 7 21 12 33 12 15 -1 10 -6 -18 -21 -21 -11 -42 -17 -48 -14 -5 4 -8 2 -7 -5 2 -6 -24 -25 -57 -44 -33 -18 -94 -54 -135 -81 -166 -107 -305 -185 -364 -205 -73 -24 -197 -40 -312 -40 -63 0 -87 -4 -104 -18 -21 -17 -19 -17 62 -11 116 10 201 9 168 -1 -21 -7 -22 -8 -5 -9 11 -1 38 -7 60 -15 34 -12 42 -12 65 1 24 14 24 14 5 -1 -11 -9 -36 -29 -55 -44 -65 -51 -165 -140 -214 -190 -27 -28 -54 -48 -60 -45 -6 3 -8 3 -4 -2 4 -4 -17 -35 -47 -69 -97 -108 -58 -85 58 35 61 64 140 140 175 168 75 61 182 134 182 125 0 -3 6 -1 14 5 11 10 14 9 12 -4 -1 -8 -8 -21 -16 -28 -10 -9 -11 -9 -6 1 5 7 1 12 -9 12 -9 0 -19 -9 -22 -19 -3 -12 -11 -17 -19 -14 -8 3 -14 0 -14 -5 0 -6 -8 -13 -17 -16 -10 -2 -1 -2 20 1 31 4 43 1 63 -18 15 -14 24 -18 24 -9 0 7 3 10 6 7 4 -4 1 -14 -6 -22 -11 -13 -11 -18 0 -28 10 -10 12 -8 7 6 -4 11 -3 16 3 12 6 -3 10 -1 10 5 0 6 7 18 15 26 15 15 10 44 -7 44 -6 0 -8 -7 -4 -15 3 -8 2 -15 -3 -15 -5 0 -11 9 -14 19 -4 15 0 18 18 17 24 -3 68 27 57 39 -4 5 -2 5 4 2 6 -3 17 5 24 18 7 13 19 26 26 29 7 3 -5 -21 -27 -52 -23 -31 -80 -118 -128 -192 -113 -174 -225 -301 -327 -368 -106 -70 -75 -66 50 7 56 32 130 73 164 90 35 18 82 45 105 62 22 16 42 27 45 25 2 -3 -30 -60 -71 -128 -112 -185 -208 -368 -193 -368 3 0 30 39 61 87 189 289 483 613 790 868 160 134 178 146 280 200 65 34 96 45 114 40 19 -4 22 -3 11 4 -20 14 -10 21 36 26 l39 4 -30 -14 c-60 -28 -8 -14 203 55 118 39 216 69 219 67 2 -3 -10 -10 -27 -15 -31 -11 -31 -11 -15 -42 9 -17 24 -34 33 -37 23 -8 71 -55 72 -70 0 -6 5 -13 10 -15 13 -4 29 -167 17 -171 -4 -1 -11 -21 -14 -45 -3 -25 -16 -53 -31 -69 -14 -15 -36 -57 -49 -93 -13 -35 -32 -74 -43 -85 -11 -12 -20 -28 -20 -37 0 -8 -9 -23 -20 -33 -12 -11 -17 -23 -12 -29 16 -21 7 -41 -18 -41 -15 0 -26 -6 -28 -17 -2 -10 1 -18 7 -18 6 0 10 6 8 13 -1 6 4 11 11 9 7 -1 23 2 35 8 19 9 20 9 4 -2 -93 -66 -181 -117 -190 -111 -7 3 -9 3 -5 -2 11 -12 -11 -35 -34 -35 -17 0 -18 3 -8 15 9 11 9 15 1 15 -6 0 -14 -7 -18 -16 -3 -9 -12 -13 -21 -9 -9 3 -13 3 -10 -1 4 -4 -4 -15 -17 -26 -14 -11 -23 -24 -20 -29 9 -14 -6 -79 -17 -73 -23 14 63 -119 140 -219 27 -34 42 -61 36 -66 -5 -5 -65 -32 -134 -61 -220 -91 -500 -249 -603 -339 -20 -18 -55 -56 -79 -84 -34 -42 -27 -38 34 23 90 90 201 165 331 224 53 24 93 47 89 51 -4 5 1 5 10 2 16 -6 388 117 708 233 63 23 184 56 270 75 214 47 462 95 489 95 32 0 135 -64 166 -103 13 -18 25 -26 25 -18 0 20 -82 97 -131 122 -23 11 -52 19 -65 16 -13 -2 -24 -1 -24 2 0 3 25 38 56 76 31 39 58 75 61 80 7 15 -52 -53 -97 -111 -45 -58 -48 -59 -280 -99 -80 -14 -208 -39 -285 -55 -211 -44 -239 -49 -244 -44 -2 2 2 4 10 4 11 0 11 2 1 9 -10 6 -9 11 4 22 16 12 17 12 11 -3 -3 -10 -3 -18 1 -18 4 0 23 29 42 65 37 69 128 178 196 235 23 19 39 40 37 45 -3 6 10 -7 29 -27 18 -20 49 -44 68 -54 43 -21 126 -22 165 -1 51 26 116 99 148 165 25 55 31 83 40 193 l10 129 68 0 c47 0 93 8 143 25 l75 25 40 -21 c29 -15 49 -18 74 -14 l35 7 11 87 c6 48 11 119 11 158 0 124 -46 336 -92 427 l-20 39 123 -6 c156 -7 160 -8 148 -52 -19 -67 -71 -323 -95 -465 -35 -213 -36 -217 -26 -201 7 10 14 -1 27 -38 41 -125 -27 -429 -91 -404 -10 4 -14 -4 -14 -28 0 -19 -3 -51 -7 -72 -6 -38 -6 -39 -42 -32 -20 3 -44 8 -53 11 -34 10 -18 -13 22 -31 22 -10 45 -24 50 -30 7 -8 5 -67 -7 -181 -13 -131 -16 -273 -16 -634 0 -502 7 -605 69 -949 13 -74 21 -137 19 -142 -3 -4 -1 -10 5 -14 6 -4 10 10 10 37 1 24 7 72 14 108 32 157 140 516 184 609 14 31 24 59 24 64 -1 4 2 6 7 5 5 -2 27 20 50 49 41 51 42 53 26 80 -11 20 -14 22 -10 7 4 -14 0 -24 -10 -28 -9 -3 -15 -11 -14 -18 2 -22 -13 -58 -22 -52 -5 2 7 46 25 97 31 83 48 123 133 310 15 31 29 57 33 57 3 0 6 8 7 19 2 25 38 83 47 74 4 -4 4 -1 1 8 -7 19 68 182 80 172 4 -5 5 -2 0 6 -11 19 46 136 58 119 5 -8 6 -5 2 9 -4 14 3 40 19 70 17 32 25 41 26 28 0 -17 2 -17 10 -5 5 8 10 11 11 5 0 -5 6 8 12 29 12 39 12 39 55 -135 78 -321 171 -723 192 -834 12 -60 41 -204 65 -320 24 -115 51 -250 60 -300 23 -133 41 -217 70 -340 50 -210 103 -485 170 -890 15 -88 38 -217 50 -288 l24 -127 -40 -108 c-60 -160 -438 -941 -539 -1110 -151 -255 -713 -957 -1060 -1327 -37 -38 -95 -101 -131 -140 -283 -306 -1086 -1105 -1278 -1273 -145 -126 -208 -189 -204 -203 2 -5 -3 -6 -10 -3 -15 5 -98 -47 -91 -58 3 -4 16 -8 30 -8 14 0 22 4 19 10 -3 5 1 10 9 10 9 0 16 4 16 10 0 5 -8 7 -17 4 -17 -5 -17 -5 0 6 20 13 40 4 31 -13 -9 -20 20 20 44 60 13 21 35 47 50 58 l27 20 -22 -29 c-24 -30 -31 -52 -13 -41 6 3 10 1 10 -4 0 -6 -4 -11 -9 -11 -5 0 -23 -24 -41 -54 -46 -75 -64 -83 -128 -56 l-51 22 -71 -46 c-108 -70 -248 -139 -268 -131 -9 3 -13 3 -9 -1 4 -4 -7 -14 -25 -22 -77 -34 -160 -53 -255 -59 -111 -7 -140 -22 -45 -24 56 -1 57 -1 27 -14 -16 -8 -23 -14 -15 -15 13 0 13 -1 0 -10 -13 -9 -13 -10 0 -10 9 0 21 -5 28 -12 6 -6 28 -12 48 -13 37 -1 39 -3 102 -85 13 -17 28 -28 33 -24 5 3 9 -6 9 -20 0 -14 -5 -28 -10 -31 -6 -3 -7 -18 -4 -33 4 -15 4 -24 0 -21 -12 11 -16 70 -4 63 7 -5 8 -2 3 5 -5 9 -10 10 -18 2 -13 -13 -17 -52 -5 -45 4 3 8 -2 8 -11 0 -8 6 -18 13 -21 8 -3 14 -12 14 -20 0 -8 -28 12 -63 47 -36 35 -59 66 -53 69 6 5 5 10 -3 17 -22 17 -44 25 -24 9 11 -9 16 -19 13 -23 -4 -4 -31 17 -60 45 -29 29 -58 52 -65 52 -22 0 -12 -14 32 -48 61 -46 216 -202 216 -217 0 -15 -97 -106 -141 -132 -16 -9 -29 -21 -29 -25 0 -3 48 -45 108 -91 59 -47 136 -113 171 -148 36 -34 62 -55 58 -46 -9 24 8 21 27 -6 l17 -22 -7 25 c-6 22 -5 23 10 11 10 -9 16 -10 16 -2 0 6 -4 11 -10 11 -5 0 -10 5 -10 11 0 6 7 9 15 5 8 -3 14 0 12 7 -1 9 19 11 75 9 48 -1 79 2 83 8 5 8 -21 10 -88 8 l-94 -3 15 23 c11 16 24 22 53 22 22 0 39 4 39 10 0 5 -6 7 -14 4 -32 -12 -22 26 16 65 43 43 53 48 63 31 3 -5 0 -7 -8 -4 -8 3 -18 1 -22 -5 -3 -7 2 -11 14 -11 26 0 36 17 20 36 -10 12 -9 13 5 8 14 -5 20 -24 19 -61 -1 -7 3 -13 8 -13 9 0 12 13 10 42 -2 11 5 18 14 18 19 0 12 -34 -13 -62 -20 -24 -32 -23 -32 2 0 11 -4 20 -10 20 -5 0 -10 -16 -10 -35 0 -37 15 -46 39 -23 6 7 17 13 24 13 7 0 12 5 12 10 0 6 5 17 10 25 5 8 8 22 7 30 -1 8 8 20 20 25 12 6 29 24 38 40 8 17 18 31 23 33 4 2 7 13 7 23 0 11 -4 18 -9 14 -5 -3 -17 2 -26 11 -15 15 -14 19 12 48 15 17 29 32 30 34 1 3 26 9 46 11 4 1 7 6 7 12 0 8 -5 8 -15 -1 -9 -8 -15 -9 -15 -2 0 21 23 25 37 7 15 -21 18 -8 4 14 -11 17 23 53 43 45 7 -3 21 4 31 16 21 24 14 27 -10 4 -9 -9 -19 -14 -22 -10 -8 8 37 56 50 53 5 -1 12 4 15 12 3 8 0 11 -7 7 -6 -4 -11 -5 -11 -2 0 3 10 10 21 17 13 7 19 7 15 1 -3 -6 -2 -14 4 -17 6 -4 10 -3 9 2 -1 4 -1 16 0 27 1 16 3 17 19 5 15 -13 16 -12 3 4 -12 15 -8 23 42 75 31 31 70 74 88 94 17 21 36 35 42 31 6 -3 7 -1 3 6 -6 10 11 31 100 125 5 6 41 52 79 101 72 93 89 114 141 174 138 160 416 546 661 916 115 173 186 290 314 515 45 80 87 152 94 160 14 18 36 91 30 101 -3 3 3 13 12 20 15 12 16 12 10 -4 -4 -11 -3 -16 4 -12 6 4 8 14 5 21 -4 9 36 64 102 142 232 274 369 447 592 745 40 54 75 96 77 93 6 -6 -197 -376 -440 -801 -94 -164 -407 -679 -492 -810 -195 -300 -450 -680 -570 -850 -212 -301 -246 -345 -258 -338 -6 3 -7 1 -3 -5 6 -10 -135 -208 -236 -332 -15 -19 -85 -107 -154 -195 -70 -88 -131 -159 -136 -157 -5 1 -7 -1 -5 -5 6 -10 -107 -150 -115 -143 -4 3 -17 -5 -30 -18 -14 -12 -28 -19 -33 -15 -4 5 -5 2 -1 -5 6 -11 13 -8 32 9 41 39 26 5 -16 -36 -36 -35 -58 -39 -27 -5 10 12 9 12 -5 1 -12 -9 -18 -10 -18 -2 0 19 5 26 15 23 6 -2 7 0 2 4 -4 4 -16 8 -27 9 -14 1 -17 -2 -10 -15 5 -9 5 -22 0 -29 -6 -11 -9 -10 -13 5 -2 10 -4 4 -3 -13 l1 -33 18 23 c15 17 18 18 13 4 -3 -11 -2 -16 4 -12 21 13 8 -12 -25 -47 -18 -21 -31 -38 -28 -38 3 0 0 -7 -7 -15 -7 -8 -16 -13 -20 -10 -5 3 -12 0 -16 -6 -4 -8 -3 -9 4 -5 17 10 15 1 -12 -52 -39 -77 -76 -178 -83 -227 l-6 -46 -23 22 c-13 12 -21 26 -18 31 3 5 0 7 -8 6 -7 -2 -14 4 -14 12 -1 8 -3 20 -4 25 -1 6 -2 13 -1 18 0 4 -4 6 -11 5 -7 -2 -13 3 -14 10 -1 6 -3 15 -4 20 -1 4 -2 11 -1 15 1 5 -3 6 -8 3 -14 -9 -7 -33 19 -63 16 -18 10 -15 -15 8 -22 20 -51 44 -65 54 -14 9 -17 15 -7 11 49 -17 52 -18 38 -8 -11 8 -11 10 0 14 9 3 8 6 -5 11 -9 4 -15 3 -12 -1 8 -14 -55 -11 -108 4 -59 17 -56 16 -56 5 0 -5 30 -17 68 -27 62 -16 73 -24 162 -110 57 -55 123 -108 165 -132 38 -21 71 -44 73 -50 2 -6 -11 -18 -29 -27 l-31 -17 31 -19 c31 -19 74 -19 1665 -19 l1634 0 8 298 c20 689 4 873 -88 1009 -39 58 -89 87 -148 84 -48 -1 -243 -40 -439 -87 -385 -92 -820 -241 -1206 -412 l-181 -80 -94 32 c-52 18 -149 59 -215 90 -134 64 -170 70 -232 38 -24 -12 -62 -32 -85 -43 -52 -26 -294 -179 -363 -230 -71 -51 -149 -139 -179 -202 -33 -67 -48 -171 -44 -292 2 -52 1 -95 -1 -95 -2 0 -34 17 -72 38 -80 43 -78 32 -28 186 37 111 91 204 180 309 224 262 635 792 875 1127 204 284 358 513 631 935 154 239 329 522 428 690 32 55 79 136 105 180 217 370 442 791 661 1235 61 124 167 338 234 475 117 237 165 345 180 408 4 15 9 26 11 24 9 -8 119 -711 149 -947 8 -63 21 -160 29 -214 29 -188 53 -596 76 -1286 11 -313 41 -1067 60 -1480 15 -315 23 -374 113 -800 l24 -115 -18 -238 c-10 -131 -23 -272 -28 -312 -6 -41 -14 -130 -17 -199 l-7 -126 246 0 247 0 0 1928 c0 1822 -1 1940 -20 2167 -10 132 -24 299 -29 370 -14 183 -33 687 -29 765 1 36 9 -63 16 -220 7 -157 18 -330 23 -385 37 -342 36 -440 36 3110 0 2175 -3 3398 -9 3360 -5 -33 -18 -96 -28 -140 -16 -72 -17 -92 -6 -195 7 -63 11 -117 9 -119 -8 -10 -15 12 -32 90 -9 46 -22 93 -29 104 -11 19 -11 19 -13 -5 -1 -14 0 -35 1 -48 1 -16 -5 -25 -19 -29 -12 -3 -21 -12 -21 -19 0 -8 -4 -14 -10 -14 -5 0 -11 -12 -11 -27 l-1 -28 -8 30 -8 30 -1 -28 c-1 -18 -5 -26 -12 -21 -9 5 -10 -12 -5 -65 3 -39 9 -102 12 -141 4 -44 3 -70 -3 -70 -6 0 -13 15 -16 33 -18 96 -59 272 -67 286 -8 12 -9 6 -4 -20 7 -41 -12 -91 -26 -69 -6 10 -16 7 -40 -13 -17 -15 -36 -27 -41 -27 -5 0 -9 -8 -10 -17 -1 -12 -4 -10 -9 7 -7 21 -8 18 -9 -20 -1 -30 -4 -40 -10 -31 -7 11 -10 10 -14 -5 -3 -13 -5 -11 -6 9 0 15 -6 27 -11 27 -6 0 -8 -10 -6 -22 3 -13 8 -81 11 -152 4 -70 9 -134 11 -141 3 -7 1 -16 -5 -19 -12 -8 -15 2 -41 134 -19 92 -49 219 -81 344 -6 21 -12 36 -15 33 -2 -2 9 -60 25 -128 53 -226 64 -353 33 -413 -11 -22 -15 -71 -15 -190 -1 -100 -5 -164 -12 -168 -12 -8 -12 -167 0 -195 4 -10 10 -54 12 -98 2 -44 14 -172 28 -285 14 -113 29 -252 35 -310 5 -58 16 -175 25 -260 16 -166 20 -846 6 -1010 l-8 -85 -1 82 c-3 114 -29 399 -48 508 -8 50 -23 140 -34 200 -51 302 -125 668 -159 790 -19 68 -20 69 -15 20 3 -27 0 -57 -5 -65 -8 -12 -16 -7 -45 25 -19 22 -35 45 -36 52 0 6 -8 18 -17 25 -10 7 -20 20 -22 28 -2 8 -12 40 -23 70 l-19 55 6 -215 c3 -118 10 -267 15 -330 23 -284 29 -364 35 -492 5 -98 4 -138 -4 -138 -7 0 -11 33 -11 98 0 290 -81 806 -209 1332 -26 108 -30 117 -26 65 3 -43 2 -52 -4 -30 -7 26 -9 27 -10 7 -2 -34 -21 -16 -22 21 -1 31 -1 31 -9 7 -4 -14 -8 -19 -9 -12 -1 6 -9 20 -18 30 -30 30 -53 70 -53 94 0 19 -2 20 -10 8 -7 -11 -10 -3 -10 30 0 25 -5 63 -11 85 -6 22 -15 80 -20 130 -6 66 -7 40 -3 -100 2 -104 9 -242 15 -305 6 -63 9 -144 7 -180 l-3 -65 -18 93 c-10 51 -26 162 -37 245 -17 140 -69 431 -104 587 -8 36 -24 120 -36 188 -19 100 -25 120 -36 111 -8 -6 -14 -8 -14 -4 0 12 29 33 93 65 31 17 57 32 57 34 0 7 -55 -7 -68 -17 -9 -7 -11 -5 -5 9 6 17 5 18 -12 4 -10 -8 -16 -10 -12 -3 5 7 -4 14 -24 18 -17 4 -33 14 -36 22 -5 12 -7 12 -14 1 -6 -8 -9 -9 -9 -1 0 6 -9 9 -22 6 -16 -3 -19 -2 -10 4 15 11 5 48 -38 138 -57 121 -80 176 -80 191 0 8 -7 39 -16 67 -8 29 -19 68 -24 87 -17 68 -42 155 -50 175 -4 11 -13 40 -20 65 -7 25 -26 86 -42 135 -16 50 -30 99 -31 110 0 11 -4 25 -7 30 -4 6 -17 44 -29 85 -13 41 -27 87 -33 103 l-10 27 -1257 0 -1256 -1 34 -27 c19 -15 89 -70 155 -122 132 -104 351 -268 461 -345 69 -49 416 -280 450 -300 15 -9 11 -14 -25 -38 -23 -15 -68 -45 -99 -66 -258 -178 -610 -392 -891 -541 -80 -43 -183 -98 -230 -123 -72 -39 -207 -103 -410 -195 -452 -204 -786 -316 -1185 -398 l-160 -32 -38 39 c-21 22 -35 44 -31 50 5 8 9 8 14 -1 5 -8 10 -8 14 -2 8 14 -19 23 -31 11 -13 -13 -66 48 -57 63 4 6 2 8 -3 5 -19 -12 -32 18 -28 62 4 47 4 47 -15 12 -8 -15 -8 -21 -1 -17 6 4 11 2 11 -3 0 -6 -4 -11 -8 -11 -9 0 -81 92 -100 129 l-13 26 25 -24 c14 -13 23 -28 20 -32 -3 -5 0 -9 6 -9 7 0 9 12 7 29 -6 37 0 43 26 29 15 -8 22 -8 25 0 2 8 11 8 29 1 25 -9 43 -5 43 12 0 5 -6 9 -14 9 -8 0 -13 7 -12 15 4 28 16 28 44 3 50 -47 276 -188 302 -188 6 0 -47 67 -117 149 -168 196 -228 272 -228 290 -1 9 -6 15 -12 14 -6 -1 -29 21 -51 50 -82 109 -152 207 -147 207 3 0 -4 9 -15 20 -12 12 -18 26 -14 32 4 7 3 8 -5 4 -6 -4 -14 0 -18 11 -4 10 -9 20 -13 23 -6 5 -90 132 -144 218 -15 23 -24 48 -20 54 4 7 3 8 -4 4 -15 -9 -44 48 -36 71 4 13 3 15 -4 4 -7 -10 -11 -10 -17 -1 -4 7 -1 17 6 22 11 8 10 9 -3 5 -13 -5 -36 29 -106 151 -118 207 -217 390 -288 535 l-58 117 -594 0 -593 0 7 -22 c3 -13 24 -63 46 -113 22 -49 42 -97 44 -105 9 -24 -64 89 -108 168 l-40 72 -119 0 c-106 0 -119 -2 -120 -17 0 -15 -2 -15 -9 2 -6 13 -9 15 -9 5 -1 -31 59 -412 90 -570 18 -91 33 -177 33 -192 1 -14 4 -24 7 -22 8 4 21 -57 15 -64 -3 -2 -8 7 -12 22 -3 14 -13 26 -21 26 -11 0 -14 7 -10 21 6 22 -11 69 -24 69 -4 0 -4 -12 1 -27 5 -16 11 -44 14 -63 2 -19 10 -50 16 -68 10 -26 15 -31 22 -20 8 10 9 9 4 -4 -7 -22 10 -33 18 -12 4 9 9 14 13 11 3 -4 0 -13 -6 -21 -14 -16 -6 -40 10 -31 5 3 6 -1 3 -9 -5 -13 -9 -12 -24 7 -37 47 -80 129 -74 140 4 7 4 9 -1 5 -9 -9 -41 38 -135 202 -75 131 -300 580 -300 598 0 6 -53 11 -149 11 l-150 2 50 -123z m6312 -747 c108 -62 245 -135 477 -252 l185 -94 -55 -7 c-143 -17 -384 -60 -470 -84 -52 -15 -117 -33 -145 -40 -27 -8 -84 -25 -125 -39 -41 -13 -118 -38 -170 -55 -149 -48 -299 -106 -512 -197 -229 -97 -257 -102 -459 -83 -150 14 -148 8 -23 86 39 24 118 62 175 83 57 21 176 68 264 103 88 36 217 85 287 109 70 23 126 44 124 47 -8 8 -296 -91 -496 -171 -69 -27 -147 -58 -173 -68 -63 -25 -54 -13 35 46 40 27 143 101 228 166 133 99 742 499 762 499 3 0 44 -22 91 -49z m-194 -1654 c-2 -2 -25 -16 -51 -31 -27 -15 -48 -31 -48 -36 0 -6 -6 -10 -14 -10 -7 0 -19 -7 -26 -15 -11 -13 -10 -14 5 -9 13 5 16 4 11 -5 -4 -6 -16 -9 -26 -6 -23 7 -66 -33 -64 -60 1 -14 -5 -20 -22 -20 -12 0 -20 4 -17 9 3 4 -5 5 -18 2 -13 -3 -18 -3 -11 0 6 3 12 11 12 17 0 6 -14 -4 -31 -21 -17 -18 -39 -32 -49 -32 -10 0 -23 -7 -30 -15 -7 -8 -16 -12 -21 -9 -27 16 14 -90 59 -153 12 -17 22 -34 22 -38 0 -4 9 -21 21 -38 l21 -32 -26 30 c-14 17 -26 35 -26 42 0 6 -4 13 -8 15 -8 3 -102 154 -102 163 0 7 210 145 221 145 6 0 7 -5 3 -12 -4 -7 -3 -8 5 -4 6 4 9 11 6 16 -7 12 64 52 78 44 7 -4 8 -3 4 2 -8 8 114 76 122 68 2 -2 2 -5 0 -7z m196 -8544 c55 -25 146 -64 202 -87 90 -36 123 -56 94 -56 -13 0 -232 -118 -376 -203 -120 -70 -344 -217 -462 -301 l-62 -45 41 77 c22 42 75 142 118 222 43 80 109 203 146 274 63 119 73 132 114 153 52 26 53 26 185 -34z m-264 -27 c-6 -8 -49 -85 -95 -172 -126 -243 -265 -486 -294 -517 -22 -23 -161 -112 -188 -120 -10 -3 -13 93 -5 219 7 110 11 126 41 183 63 118 137 181 405 346 130 80 164 95 136 61z"/>
<path d="M5010 11993 c0 -23 228 -306 240 -298 5 3 12 0 16 -6 5 -8 3 -9 -6 -4 -28 17 0 -20 120 -157 287 -327 677 -693 935 -875 113 -80 376 -246 381 -240 2 2 -10 19 -26 38 -17 19 -27 26 -23 15 5 -15 0 -14 -33 8 -21 14 -45 29 -53 33 -8 4 -37 21 -65 40 -47 31 -48 36 -3 36 9 0 17 4 17 10 0 7 5 6 12 -1 10 -10 10 -15 -1 -21 -9 -6 -5 -8 13 -8 15 0 38 -11 52 -23 13 -13 24 -20 24 -16 0 5 -66 101 -146 213 -214 299 -357 531 -565 920 -91 170 -148 284 -162 326 -6 16 -33 17 -367 17 -198 0 -360 -3 -360 -7z"/>
<path d="M4662 6408 c42 -82 42 -84 46 -206 5 -146 -11 -338 -38 -481 -11 -56 -20 -126 -20 -157 0 -129 126 -333 359 -582 57 -61 115 -127 129 -147 41 -58 41 -40 0 43 -21 42 -61 129 -89 192 -28 63 -87 193 -131 289 l-80 173 -3 227 c-2 218 -4 229 -32 326 -36 119 -92 257 -139 343 -50 90 -52 76 -2 -20z"/>
<path d="M8085 3823 c-154 -21 -435 -79 -399 -82 6 -1 65 10 130 23 186 38 269 48 409 50 164 1 246 -14 327 -64 34 -20 63 -41 65 -47 5 -13 -100 -60 -172 -77 -46 -11 -180 -15 -570 -20 -364 -4 -544 -10 -630 -21 -66 -8 -124 -15 -130 -14 -39 0 138 55 400 124 167 44 165 43 141 44 -11 1 -81 -15 -155 -35 -308 -81 -630 -186 -971 -316 -85 -33 -182 -66 -215 -74 -51 -12 -347 -37 -565 -47 -39 -2 -21 -4 45 -5 151 -2 387 14 481 34 84 17 145 37 314 102 162 63 324 120 387 137 129 34 435 54 931 60 518 7 574 12 667 63 67 36 66 57 -5 99 -86 51 -191 73 -334 72 -67 -1 -134 -4 -151 -6z"/>
<path d="M3353 54 c-22 -10 -14 -33 15 -41 38 -10 103 -9 292 5 91 6 296 13 455 13 198 1 266 4 215 9 -95 10 -961 22 -977 14z"/>
</g>
</svg>
